
<svg xmlns="http://www.w3.org/2000/svg" version="1.1" xmlns:xlink="http://www.w3.org/1999/xlink" preserveAspectRatio="none" x="0px" y="0px" width="500px" height="300px" viewBox="0 0 1000 600">
<defs>
<g id="tree_0_Layer0_0_FILL">
<path fill="#E6E6E6" stroke="none" d="
M 76.35 -265.8
L 62.55 -260.4 62.55 -281.15
Q 55.1 -288.3 46.95 -293.7 24.55 -308.7 0.05 -308.7 -29.4 -308.7 -55.5 -287.35 -80.7 -266.7 -97.7 -230.35
L -71.55 -164.7 -107.7 -205.15
Q -114.1 -185.8 -117.65 -165.35
L -95.35 -149.95 -119.85 -149.95
Q -122 -132.05 -122 -113.3 -122.05 -75.35 -112.75 -38.7
L -67.65 -14.9 -105.4 -14.9
Q -89.8 27.85 -63.45 53.6 -36.35 80.1 -4.5 81.95
L -6.65 140.55 -25.6 121 -7.55 164.95 -12.8 307.8 12.85 308.7 8.65 132.6 52.35 87.25 8.2 114 7.4 81.75
Q 30.05 79.6 50.6 64.6 70.25 50.2 85.75 25.75
L 70.95 10.15 94.6 10.2
Q 104.35 -8.9 110.9 -31.55 120.35 -64.35 121.8 -100.6
L 79.4 -124.3 122 -117.45
Q 121.5 -156.55 111.75 -192.05 102.25 -226.4 85.45 -252.8 81.05 -259.7 76.35 -265.8 Z"/>
</g>

<g id="step_1_driver_call_you_0_Layer8_0_FILL">
<path fill="#E6E6E6" stroke="none" d="
M -88.9 -252.5
Q -91.5 -253.9 -94.5 -254.8 -95.7 -262.3 -103.15 -267.85 -106.45 -270.3 -110.3 -271.85
L -110.55 -271.25
Q -110.55 -271.6 -110.6 -271.95 -111.05 -280.55 -122.2 -286.65 -133.8 -293 -150.25 -293 -166.65 -293 -178.3 -286.65 -184.7 -283.1 -187.55 -278.8 -187.7 -278.55 -187.9 -278.3
L -188.85 -278.85
Q -199.8 -278.85 -207.55 -271.1 -212.9 -265.75 -214.5 -258.85 -215.85 -259.25 -217.3 -259.25 -222.4 -259.25 -226 -254.6 -229.6 -249.9 -229.6 -243.35 -229.6 -242 -229.45 -240.8 -229.35 -240.15 -229.25 -239.45 -225.05 -238.75 -211.1 -238.15 -210.1 -238.1 -209 -238.05 -207.4 -238 -205.75 -237.95 -189 -237.35 -167.25 -237.2 -161.7 -237.2 -155.85 -237.2 -151.5 -237.2 -147.3 -237.2 -141 -237.25 -135.05 -237.3 -117 -237.5 -102.7 -238.05 -101.65 -238.1 -100.6 -238.15 -83.1 -238.9 -81 -239.85 -80.9 -240.1 -80.85 -240.35 -81 -240.45 -81.25 -240.55
L -80.7 -242.1
Q -80.7 -248.2 -88.9 -252.5
M -154.5 -249.55
Q -154.65 -249.55 -154.8 -249.55
L -154.65 -251.95
Q -154.65 -250.7 -154.5 -249.55
M -126.35 -253.8
Q -126.25 -253.85 -126.15 -253.9 -125.95 -253.65 -126.25 -253.5
L -126.35 -253.8
M -162.85 -250.5
L -162.45 -252.45
Q -162.45 -251.45 -162.5 -250.45 -162.65 -250.45 -162.85 -250.5
M -205.05 -243.35
L -205 -242.4
Q -205.05 -242.4 -205.1 -242.4 -205.05 -242.85 -205.05 -243.35 Z"/>
</g>

<g id="step_1_driver_call_you_0_Layer8_1_FILL">
<path fill="#E6E6E6" stroke="none" d="
M -781.7 119.7
Q -781.15 117.2 -780.95 115.5 -787.9474609375 118.0208984375 -793.9 122.25 -794.00703125 121.187109375 -794.2 120.15
L -797.35 122 -794.5 118.7
Q -795.3 115.1 -796.15 112.7
L -797.8 113.75 -796.35 112.05
Q -797.2 109.6 -797.9 108.05 -803.210546875 114.6013671875 -806.25 122.35 -807.5548828125 118.1927734375 -810.2 114.35
L -812.3 117.35 -811.05 113.2
Q -812.75 110.75 -814.95 108.35
L -816.1 110 -815.45 107.85
Q -817.15 105.95 -818.45 104.85 -820.4107421875 111.86484375 -820.35 119.25 -821.2783203125 118.7572265625 -822.25 118.3
L -822.55 121.95 -823.6 117.75
Q -826.45 116.5 -829.45 115.65
L -829.6 117.6 -830.15 115.45
Q -832.6 114.75 -834.25 114.4 -831.95 122.65 -827.25 129.6
L -821.75 130.55 -826 131.2
Q -825.15 132.25 -824.1 133.25 -818.95 138.05 -813.9 139.95 -810.975 141.0505859375 -809.1 140.8 -808.6203125 140.8369140625 -808.15 140.7 -807.475 140.5037109375 -806.95 140 -806.1666015625 142.7380859375 -804.95 143.95 -804.734375 144.2673828125 -804.45 144.5 -802.25 146.3 -797.5 143.7 -792.8 141.1 -788.35 135.6 -785.65 132 -784.05 127.75
L -787.7 127.75 -783.55 126.4
Q -782.45 123.05 -781.85 120.4
L -783.85 120.4 -781.7 119.7
M -803.95 127.6
L -805.35 126.1
Q -805.6533203125 124.5595703125 -806.1 122.9
L -803.95 127.6 Z"/>
</g>

<g id="step_1_driver_call_you_0_Layer7_0_FILL">
<path fill="#E6E6E6" stroke="none" d="
M 680.65 736.35
Q 797.45 731.05 797.45 723.6 797.45 716.15 680.65 710.9 563.7 705.6 398.7 705.6 233.7 705.6 116.8 710.9 0 716.15 0 723.6 0 731.05 116.8 736.35 233.5 741.6 398.7 741.6 563.9 741.6 680.65 736.35 Z"/>
</g>

<g id="mobile_phone_calling_screen_0_Layer5_0_FILL">
<path fill="#413F56" stroke="none" d="
M 424 63.4
Q 424 37.15 405.4 18.6 386.85 0 360.55 0
L 128.5 0
Q 102.2 0 83.65 18.6 65.1 37.15 65.1 63.4
L 65.1 664.4
Q 65.1 690.65 83.65 709.25 102.2 727.8 128.5 727.8
L 360.55 727.8
Q 386.85 727.8 405.4 709.25 424 690.65 424 664.4
L 424 250.95 428 250.95 428 172.95 424 172.95 424 63.4 Z"/>
</g>

<g id="mobile_phone_calling_screen_0_Layer5_1_FILL">
<path fill="#FFFFFF" stroke="none" d="
M 332.85 16.5
Q 336.35 25.1 332.75 33.75 329.15 42.35 320.5 45.85 316.45 47.5 312 47.5
L 179.05 47.5
Q 169.75 47.5 163.15 40.9 156.55 34.3 156.55 25 156.55 20.55 158.2 16.5
L 129.95 16.5
Q 110.35 16.5 96.45 30.35 82.6 44.25 82.6 63.85
L 82.6 663.95
Q 82.6 683.55 96.45 697.45 110.35 711.3 129.95 711.3
L 363.15 711.3
Q 382.75 711.3 396.65 697.45 410.5 683.55 410.5 663.95
L 410.5 63.85
Q 410.5 44.25 396.65 30.35 382.75 16.5 363.15 16.5
L 332.85 16.5 Z"/>
</g>

<g id="phone_icon_decline_0_Layer1_0_FILL">
<path fill="#FF3B30" stroke="none" d="
M 42.75 -42.8
Q 25.05 -60.5 0 -60.5 -25.05 -60.5 -42.8 -42.8 -60.5 -25.05 -60.5 0 -60.5 25.05 -42.8 42.75 -25.05 60.5 0 60.5 25.05 60.5 42.75 42.75 60.5 25.05 60.5 0 60.5 -25.05 42.75 -42.8 Z"/>
</g>

<g id="phone_ico_0_Layer0_0_FILL">
<path fill="#FFFFFF" stroke="none" d="
M -15.4 -27.9
Q -16.2 -28.65 -16.95 -28.65 -19.35 -28.55 -21.35 -27.6 -24 -26.35 -25.75 -23.75 -27.4 -21.3 -28.05 -17.8 -28.7 -14.35 -28.3 -10.5 -27.8 -6.5 -26.2 -2.8 -24.5 1.2 -21.65 4.4 -16.65 9.95 -8.6 17.2 -4.6 20.8 -1.45 23.4 -1.05 23.8 -0.3 24.3 1.1 25.3 2.65 26.1 7.6 28.65 12.8 28.65 14.05 28.65 15.25 28.55 21.1 27.85 24.7 24.4 27.2 22.05 28.4 18.65 28.65 17.95 28.2 17.15 27.8 16.4 27.05 16.1
L 15.4 10.9
Q 14.7 10.6 13.6 10.8 12.55 10.95 11.95 11.5
L 8.3 15.05
Q 7.6 15.75 6.55 16.15 5.5 16.55 4.45 16.55 3.35 16.55 2.5 16.15 0.1 14.9 -2.45 13.05 -5.75 10.55 -8.95 7.2 -13.95 1.85 -16.05 -2.1 -16.75 -3.4 -16.35 -5.2 -15.95 -6.85 -14.9 -7.9
L -11.6 -11.2
Q -11 -11.8 -10.75 -12.85 -10.45 -13.95 -10.75 -14.8
L -14.4 -26.45
Q -14.65 -27.25 -15.4 -27.9 Z"/>
</g>

<g id="phone_icon_accept_0_Layer1_0_FILL">
<path fill="#4CD964" stroke="none" d="
M 42.75 -42.8
Q 25.05 -60.5 0 -60.5 -25.05 -60.5 -42.8 -42.8 -60.5 -25.05 -60.5 0 -60.5 25.05 -42.8 42.75 -25.05 60.5 0 60.5 25.05 60.5 42.75 42.75 60.5 25.05 60.5 0 60.5 -25.05 42.75 -42.8 Z"/>
</g>

<g id="mobile_phone_calling_screen_0_Layer3_2_FILL">
<path fill="#CDCDCD" stroke="none" d="
M -61.75 86.4
Q -61.4 85.25 -61.5 84 -61.6 82.75 -62.15 81.65 -62.75 80.55 -63.7 79.75 -65.7 78.1 -68.25 78.3 -70.85 78.55 -72.5 80.5
L -73.4 81.55
Q -76.8 80.1 -80.5 79.85
L -80.5 76.95 -77.65 76.95 -77.65 74.05 -86.3 74.05 -86.3 76.95 -83.4 76.95 -83.4 79.85
Q -87.15 80.1 -90.55 81.55
L -91.45 80.5
Q -92.25 79.55 -93.35 79 -94.4 78.4 -95.65 78.3 -96.9 78.2 -98.1 78.55 -99.25 78.95 -100.2 79.75 -101.2 80.55 -101.75 81.65 -102.3 82.75 -102.45 84 -102.55 85.25 -102.15 86.4 -101.8 87.6 -101 88.55
L -100.1 89.6
Q -101.85 92.25 -102.75 95.25 -103.65 98.3 -103.65 101.5 -103.65 105.85 -102 109.8 -100.35 113.75 -97.3 116.85 -96.5 117.65 -95.55 118.4
L -97.75 121.55 -95.4 123.2 -93.2 120.05
Q -90.65 121.6 -87.85 122.4 -84.95 123.2 -81.95 123.2 -78.95 123.2 -76.1 122.4 -73.25 121.6 -70.7 120.05
L -68.55 123.2 -66.2 121.55 -68.35 118.4
Q -67.4 117.65 -66.65 116.85 -63.55 113.75 -61.9 109.8 -60.25 105.85 -60.25 101.5 -60.25 98.3 -61.2 95.25 -62.1 92.25 -63.8 89.6
L -62.95 88.55
Q -62.15 87.6 -61.75 86.4
M -69.7 89.25
Q -67.3 91.65 -65.95 94.75 -64.6 98 -64.6 101.5 -64.6 105.05 -65.95 108.25 -67.3 111.4 -69.7 113.8 -72.1 116.2 -75.2 117.5 -78.45 118.85 -81.95 118.85 -85.5 118.85 -88.7 117.5 -91.85 116.2 -94.25 113.8 -96.65 111.4 -97.95 108.25 -99.35 105.05 -99.35 101.5 -99.35 98 -97.95 94.75 -96.65 91.65 -94.25 89.25 -91.85 86.8 -88.7 85.5 -85.5 84.15 -81.95 84.15 -78.45 84.15 -75.2 85.5 -72.1 86.8 -69.7 89.25
M -71.7 91.25
Q -73.75 89.25 -76.35 88.15 -79 87 -81.95 87 -84.9 87 -87.6 88.15 -90.2 89.25 -92.2 91.25 -94.2 93.25 -95.3 95.85 -96.45 98.55 -96.45 101.5 -96.45 104.45 -95.3 107.15 -94.2 109.75 -92.2 111.75 -90.2 113.75 -87.6 114.85 -84.9 116 -81.95 116 -79 116 -76.35 114.85 -73.75 113.75 -71.7 111.75 -69.7 109.75 -68.6 107.15 -67.45 104.45 -67.45 101.5 -67.45 98.55 -68.6 95.85 -69.7 93.25 -71.7 91.25
M -89.15 100.05
L -83.4 100.05 -83.4 94.3 -80.5 94.3 -80.5 102.95 -89.15 102.95 -89.15 100.05 Z"/>
</g>

<g id="mobile_phone_calling_screen_0_Layer3_3_FILL">
<path fill="#CDCDCD" stroke="none" d="
M 92.75 85.45
Q 88.5 83.95 83.35 83.95 78.5 83.95 74.25 85.55 70.35 87.1 67.35 89.85 64.5 92.5 62.95 95.85 61.4 99.2 61.4 102.7 61.4 106.6 63.3 109.95 65.25 113.45 69 115.9 68.85 117.15 68.3 118.3 67.75 119.4 66.85 120.3
L 64.65 122.5 67.75 122.5
Q 70.1 122.5 72.25 121.6 74.35 120.65 76 119 77.75 119.45 79.6 119.7 81.5 119.9 83.35 119.9 88.5 119.9 92.75 118.4 96.7 117 99.55 114.4 102.3 111.95 103.75 108.65 105.2 105.45 105.2 101.9 105.2 98.4 103.75 95.2 102.3 91.95 99.6 89.45 96.7 86.85 92.75 85.45 Z"/>
</g>

<g id="mobile_phone_calling_screen_0_Layer2_0_FILL">
<path fill="#413F56" stroke="none" d="
M -22.85 -213.75
L -22.85 -213.7 -35.5 -196.75 -35.5 -194.05 -18.45 -194.05 -18.45 -197.2 -31.1 -197.2 -31.1 -197.25 -18.5 -214.1 -18.5 -216.9 -35.5 -216.9 -35.5 -213.75 -22.85 -213.75
M -43.85 -213.75
L -43.85 -213.7 -56.5 -196.75 -56.5 -194.05 -39.45 -194.05 -39.45 -197.2 -52.1 -197.2 -52.1 -197.25 -39.5 -214.1 -39.5 -216.9 -56.5 -216.9 -56.5 -213.75 -43.85 -213.75
M -61.15 -216.9
L -64.95 -216.9 -64.95 -194.05 -61.15 -194.05 -61.15 -216.9
M -71.9 -222.9
Q -74.75 -225.75 -79.2 -225.75
L -90.5 -225.75 -90.5 -194.05 -86.55 -194.05 -86.55 -205.35 -79.25 -205.35
Q -74.75 -205.35 -71.9 -208.2 -69.05 -211.1 -69.05 -215.6 -69.05 -220.05 -71.9 -222.9
M -86.55 -208.9
L -86.55 -222.25 -80.25 -222.25
Q -76.85 -222.25 -74.95 -220.5 -73.1 -218.75 -73.1 -215.6 -73.1 -212.4 -75 -210.65 -76.85 -208.9 -80.25 -208.9
L -86.55 -208.9
M -64.75 -225.05
Q -65.45 -224.35 -65.45 -223.35 -65.45 -222.35 -64.75 -221.65 -64.05 -220.95 -63.05 -220.95 -62.05 -220.95 -61.35 -221.65 -60.65 -222.35 -60.65 -223.35 -60.65 -224.35 -61.35 -225.05 -62.05 -225.75 -63.05 -225.75 -64.05 -225.75 -64.75 -225.05
M 77.95 -222.4
L 74.1 -222.4 74.1 -216.9 70.7 -216.9 70.7 -213.75 74.1 -213.75 74.1 -200
Q 74.1 -196.7 75.45 -195.3 76.8 -193.85 79.95 -193.85
L 82.35 -194.05 82.35 -197.25 80.75 -197.15
Q 77.95 -197.15 77.95 -200.2
L 77.95 -213.75 82.4 -213.75 82.4 -216.9 77.95 -216.9 77.95 -222.4
M 52.9 -202.75
L 52.9 -216.9 49.05 -216.9 49.05 -202.05
Q 49.05 -198.15 51.15 -195.9 53.25 -193.65 57 -193.65 62.1 -193.65 64.25 -197.75
L 64.3 -197.75 64.3 -194.05 67.95 -194.05 67.95 -216.9 64.1 -216.9 64.1 -203.5
Q 64.1 -200.55 62.55 -198.8 60.95 -197.05 58.15 -197.05 52.9 -197.05 52.9 -202.75
M 3.7 -209.85
Q 3.7 -213.25 1.35 -215.3 -1 -217.3 -5.05 -217.3 -9 -217.3 -11.5 -215.3 -13.9 -213.35 -14.1 -210.3
L -10.4 -210.3
Q -9.6 -213.95 -5.1 -213.95 -2.75 -213.95 -1.45 -212.75 -0.1 -211.55 -0.1 -209.45
L -0.1 -207.55 -6.65 -207.2
Q -10.6 -206.95 -12.75 -205.2 -14.95 -203.45 -14.95 -200.5 -14.95 -197.45 -12.85 -195.55 -10.75 -193.65 -7.35 -193.65 -5.05 -193.65 -3.05 -194.85 -1.05 -196.05 0 -198
L 0.1 -198 0.1 -194.05 3.7 -194.05 3.7 -209.85
M -0.1 -202.75
Q -0.1 -200.25 -1.95 -198.6 -3.8 -196.9 -6.5 -196.9 -8.55 -196.9 -9.8 -197.9 -11.05 -198.9 -11.05 -200.5 -11.05 -203.9 -6.2 -204.2
L -0.1 -204.6 -0.1 -202.75
M 22.3 -208.5
L 39.7 -208.5 39.7 -194.05 43.65 -194.05 43.65 -225.75 39.7 -225.75 39.7 -212.05 22.3 -212.05 22.3 -225.75 18.35 -225.75 18.35 -194.05 22.3 -194.05 22.3 -208.5 Z"/>
</g>

<g id="step_1_driver_call_you_0_Layer5_0_FILL">
<path fill="#323142" stroke="none" d="
M -192.75 289.2
Q -193.25 290.05 -197.2 293.35 -200.9 297 -200.75 300.2 -200.75 300.35 -199.95 301.3 -199.2 302.2 -198.85 302.45 -198.95 302.6 -199.75 302.9 -200.2 303.1 -200.45 303.25 -200.6 303.35 -200.7 303.45 -201.1 304.95 -201.85 308.85 -195.4 310.6 -193.1 310.8 -192.05 310.9 -185.7 310.6 -184.15 310.55 -179.55 310.55 -174.9 310.3 -171 309.15 -168.4 308.5 -167.4 305.4 -167.1 304.55 -166.65 300.7
L -163.45 300.55
Q -163.35 300.4 -163.25 300.3 -162.3 299.1 -161.6 298.3 -161.85 296.55 -162.35 291.3 -162.6 288.7 -165.3 287.65 -165.15 286.85 -164.9 282.65 -164.7 279.75 -163.75 278.05
L -163.8 276.55 -165.3 276.65
Q -165.35 276.7 -165.4 276.8 -165.9 277.25 -166.5 277.4 -166.7 277.45 -167.8 277.5 -167.85 277.5 -173.25 273.5 -173.45 273.5 -174.2 273.95 -174.95 274.35 -175.65 274.35 -176.05 274.4 -177.7 273.8 -179.6 273.2 -180.45 273.1 -182.55 273 -183.35 272.8 -184.1 272.65 -184.55 272.2
L -185 272.55
Q -187.7 273.8 -187.45 276 -187.15 278.9 -187.65 279.7 -188.25 280.55 -190.1 284.25 -192.15 288.2 -192.75 289.2
M -147.1 77.25
Q -147.1 77 -147.1 76.75
L -152.65 75.15
Q -154.5 78.9 -156.45 83.5 -156.5 83.5 -156.55 83.5 -163.75 83.8 -167.3 83.25 -173.25 82.35 -176.9 79.1 -177 79 -177.05 78.95 -177.05 78.85 -177.05 78.7 -177.05 77.05 -176.95 71.9 -177.8 73.55 -179.6 74.75 -181.95 76.45 -185.15 76.6 -185.55 76.6 -185.95 76.6
L -185.95 76.85
Q -197.1 78.2 -208.75 76.95 -218.05 76.7 -222.85 76.15 -231 75.25 -237.2 71.1
L -237.95 72.25
Q -239.7 80.95 -243.8 95.95 -245.75 103.05 -245.4 110.3 -245.15 116.25 -244.6 119.45 -244.1 122.65 -243.85 127.25 -243.55 134 -246.15 143.35 -249.8 156.75 -249.95 157.5 -250.15 157.5 -250.75 157.25 -250.65 159.2 -250.75 161.95 -250.65 164.7 -248.6 171.65 -246.65 178.3 -246.7 179.55 -246.75 181.6 -246.25 184.1 -245.85 186.6 -245.3 187.75 -242.65 192.8 -241.65 201.25 -241.4 203.7 -241.15 206.2 -241.3 206.95 -242.2 208.6 -243.25 210.35 -243.2 210.8 -243.2 210.85 -241.4 217.3 -240.55 219.95 -239.7 221.75 -239.4 222.4 -239.35 223.65
L -239.75 226.25
Q -240.1 228.85 -240.1 229.5 -240 230.9 -238.8 232.3 -237.35 233.9 -236.7 237.7
L -235 246.55
Q -235 247.45 -236.65 249.5 -238.3 251.6 -238.3 251.9
L -237.45 258.7 -236.9 258.9
Q -237.55 260.75 -238.5 262.4 -239.25 263.8 -239.9 264.85 -239.85 266.55 -238.7 267.3 -238.05 267.75 -236.75 268.45 -238.55 270.45 -239.7 270.75 -240.15 270.9 -240.1 271.65 -240.1 271.75 -239.75 271.95
L -240.3 272.65
Q -246.1 278.7 -248.1 283 -248.9 284.85 -251.35 288.3 -253.55 291.4 -255.15 293.15
L -255.45 292.9
Q -263.55 294.6 -266.85 295.7 -272.45 297.6 -272.25 302.05 -272.25 302.45 -271.55 303.15 -271.3 303.4 -270.95 303.8 -270.9 303.8 -270.9 303.85
L -271.4 304.35
Q -273.7 304.25 -273.95 305.25 -274.2 305.9 -274.5 308
L -274.4 309.75
Q -271.85 310.1 -267.45 311.15 -262.6 311.95 -254.75 311.6 -252.6 311.5 -249.2 311.25 -243.6 310.85 -240.8 310.45 -238.4 310.1 -236.95 309.35 -234.5 308.2 -231.5 305.25 -228.75 305.1 -221.25 305.25 -204.9 302 -205 300 -206 296.15 -207.1 292.9
L -206.85 292.35
Q -206.7 289.35 -206.7 288.35 -206.7 286 -207.25 284.6 -207.6 283.55 -208.85 282.15 -209.9 280.95 -209.95 280 -210.1 276.5 -210.45 275
L -212.85 275.1 -212.85 275.85
Q -212.75 277.7 -216.65 279.8 -220.2 281.7 -222.45 281.8 -225.05 281.95 -226.4 280.8 -227.6 279.85 -229.6 276.4
L -229.4 275.95
Q -225.35 277.2 -223.8 277.15 -222.6 277.05 -222.45 277 -222.25 276.9 -220.4 275.45 -219.6 274.85 -216.35 273.4 -215.05 272.8 -213.9 272.25 -213.85 272.2 -213.75 272.15 -212.45 271.4 -211.45 270.75 -211.3 270.6 -211.1 270.5 -210.95 268.85 -211 268.25 -211 267.95 -211.3 267 -211.6 266.15 -211.6 265.8 -211.65 264.9 -210.45 258.95 -209.2 253.05 -209.35 250.15 -209.4 249.35 -211.65 244 -213.9 238.65 -214.1 234.05 -213.45 228.4 -212.9 222.35 -211.7 210.25 -212.05 202.9 -212.3 197.75 -213.2 189.7 -214 182.55 -214.05 182 -214.05 181.4 -213.65 180.1 -213.2 178.8 -213.2 178.6 -213.25 177.45 -214.7 175.5 -216.1 173.7 -216.35 169.95
L -215.85 169.8
Q -216.05 167.15 -215.95 166.6 -215.85 165.85 -215.1 165.25 -215.45 164.9 -216.35 164.5 -217.25 164.15 -217.65 164.15 -216.85 162.85 -214.65 160.6 -213.35 159.3 -213.45 157.7 -213.45 157.45 -214.1 156.45 -214.8 155.55 -214.8 155.45 -214.8 154.95 -213.7 152.65 -212.6 150.15 -212.55 149.9 -212.4 149.3 -212.05 148.2 -211.7 147 -211.25 145.1 -210.5 141.5 -208.7 136.1 -206.9 130.9 -206.9 130.85
L -207.25 130.65
Q -204.75 126.5 -200.25 120.05 -196.25 114.25 -196.2 114.05 -196.3 114.65 -195.25 117.05 -195.1 117.4 -194.9 117.75 -193.65 120.45 -193.35 121.45 -193.2 121.8 -192.85 126.75 -192.5 131.75 -191.75 134.15 -191.1 136.3 -190.95 138.3 -190.75 141 -190.65 141.6 -190.2 143.85 -188.65 146.3 -187.3 148.5 -187.25 149.65 -187.25 149.95 -188.25 152.35 -189.25 155.3 -189.1 158.8 -188.85 163.2 -187.7 166.25 -186.6 169.3 -186.45 171.85 -186.45 172.2 -186.85 174.25 -187.25 176.35 -187.25 176.65 -187.2 177.7 -185.6 179.3 -184.65 180.35 -184.15 181.15
L -184.75 181.4
Q -182.25 187.15 -182.15 187.5 -181.9 188.85 -181.35 201.1
L -180.75 212.95
Q -180.75 215.1 -180.7 220.05 -180.6 224.45 -180.65 226.05 -180.35 232.3 -180.55 234.05 -181.35 236.35 -182.75 238.35 -183.75 239.8 -183.7 240.95 -183.7 241.65 -182.55 244.15 -182.55 244.5 -182.75 245.3 -183 246 -182.95 246.3 -182.85 249.2 -181.45 252.1
L -185.1 260
Q -185.05 260.6 -184.55 262.35 -184.15 264.15 -184.1 265 -184.05 265.6 -185 266.55 -185.55 267.05 -186.7 268.1 -186 269.15 -185.35 271.65
L -185.05 271.55 -185 271.55
Q -184.45 271.5 -181.15 270.85 -177.85 270.2 -177.35 270.2 -174.25 270.05 -170.9 271.6 -169.3 272.35 -165.35 274.4 -165.25 274.45 -165.15 274.5 -163.55 275.4 -161.55 276.45
L -161.65 274.45
Q -162.3 273 -162.9 272.2 -163 272.05 -163.05 271 -163.1 270.05 -162.8 268.55 -162.5 267.1 -162.55 265.5 -162.65 264.15 -163 263.7 -163.45 263.25 -163.45 262.9 -163.7 257.35 -159.85 250.35 -156.05 244.5 -156.05 244.35 -156.05 244.05 -157 242.05 -158 240.05 -158.05 239.15 -158.1 238.1 -157.85 234.2 -157.85 233.85 -157.45 233.55 -155.1 218.65 -154.8 214.95 -153.9 202.15 -152.9 153.7 -152.95 153.6 -152.95 153.5 -153.1 152.85 -153.1 152.7 -153.1 152.15 -152.7 150.6 -152.25 149.1 -152.25 148.75 -152.25 148.6 -153 146.35 -153.75 144.15 -153.85 142.05 -154 138 -153.1 133.65 -152.25 129.1 -152.25 127.55 -152.25 126.15 -151.5 124.4 -150.75 122.7 -150.8 121.2 -149.25 100.55 -149.15 97.9
L -148.7 96.85
Q -148.75 95.4 -149.15 94.5 -149.6 93.8 -149.6 93.65 -149.65 92.25 -147.85 90.5 -146.05 88.7 -146.15 86.45 -146.2 85.9 -146.6 84.75 -147.05 83.55 -147.2 81 -147.25 79.8 -147.1 77.25
M -153.3 -131.25
Q -153.4216796875 -131.8326171875 -153.65 -132.45 -154.3353515625 -134.5994140625 -156.05 -136.6 -157.814453125 -135.90859375 -159.5 -135.45 -159.2134765625 -133.828125 -158.5 -133.4 -157.45 -132.8 -157.45 -132.65 -157.4 -131.2 -159.45 -128.15 -161.8 -124.7 -161.85 -124.55
L -161.8 -124.3
Q -160.65 -124.95 -159.65 -125.95 -158.65 -127 -158.25 -127.45
L -155.2 -128 -155.25 -128.35
Q -154.1041015625 -129.9083984375 -153.3 -131.25
M -162.7 -143.3
L -162.7 -143.35 -162.7 -143.35 -162.7 -143.3
M -204.05 -123.35
Q -204.85 -121.3 -205.55 -119.95 -206.85 -117.45 -208.55 -117.35 -209.8 -117.3 -210.1 -117.9 -210.45 -118.35 -210.45 -120 -214.05 -119.75 -215.15 -114.8 -215.7 -112.2 -215.55 -107.35
L -215.55 -107.3
Q -215.55 -106.6 -215.5 -105.9 -215.45 -104.35 -215.2 -103.8 -214.8 -103.1 -213.9 -103.1 -213 -103.15 -208.1 -107.7 -207.55 -108.25 -206.95 -108.8 -201.85 -113.65 -199.95 -115.8 -199.95 -115.95 -199.95 -116.05 -200.15 -118.8 -200.7 -120.55 -201.35 -122.7 -201.55 -123.5
L -204.05 -123.35 Z"/>

<path fill="#D0CDDF" stroke="none" d="
M -177.35 270.2
Q -177.85 270.2 -181.15 270.85 -184.45 271.5 -185 271.55
L -185.05 271.55
Q -185 271.7 -184.9 271.85 -184.75 272.05 -184.55 272.2 -184.1 272.65 -183.35 272.8 -182.55 273 -180.45 273.1 -179.6 273.2 -177.7 273.8 -176.05 274.4 -175.65 274.35 -174.95 274.35 -174.2 273.95 -173.45 273.5 -173.25 273.5 -167.85 277.5 -167.8 277.5 -166.7 277.45 -166.5 277.4 -165.9 277.25 -165.4 276.8 -165.35 276.7 -165.3 276.65 -165.35 275.9 -165.25 275.15 -165.2 274.8 -165.15 274.5 -165.25 274.45 -165.35 274.4 -169.3 272.35 -170.9 271.6 -174.25 270.05 -177.35 270.2
M -229.6 276.4
Q -227.6 279.85 -226.4 280.8 -225.05 281.95 -222.45 281.8 -220.2 281.7 -216.65 279.8 -212.75 277.7 -212.85 275.85 -212.95 275.45 -213.05 275.1 -213.5 273.6 -213.65 272.85 -213.75 272.35 -213.75 272.15 -213.85 272.2 -213.9 272.25 -215.05 272.8 -216.35 273.4 -219.6 274.85 -220.4 275.45 -222.25 276.9 -222.45 277 -222.6 277.05 -223.8 277.15 -225.35 277.2 -229.4 275.95
L -229.6 276.4 Z"/>

<path fill="#C8102E" stroke="none" d="
M -136.6 70.9
Q -136.65 70.4 -138.4 66.95 -140.75 62.4 -142.4 58.45 -146.7 64.3 -149.6 69.3 -151.05 71.9 -152.65 75.15
L -147.1 76.75
Q -147.1 77 -147.1 77.25 -146.9 77.2 -146.7 77.1 -146.05 76.7 -145.85 76.7 -136.6 71.4 -136.6 70.9
M -245.2 -87.35
Q -249.95 -79 -251.15 -77.1 -255.85 -69.85 -262.35 -63.25 -264.85 -56.65 -266.85 -51.95
L -269.8 -51.85
Q -270.05 -51.65 -270.45 -51.55 -271.95 -51.2 -275.55 -51.8
L -275.75 -50.85
Q -272.4 -44.55 -271.9 -43.65 -271.8 -43.45 -271.7 -43.3 -271.75 -43.3 -271.7 -43.25 -271.25 -42.3 -271 -41.55 -265.5 -42.6 -260.4 -44.35 -257.25 -45.45 -249.35 -48.35 -243.75 -50.25 -238.8 -52.6 -235.95 -53.65 -230.9 -53.95 -230.3 -29.7 -230.6 -16.5 -230.9 -6.3 -230.5 2.6 -230.25 7.35 -232.45 14.5 -233.75 18.8 -234.35 21 -234.3 22.05 -234.25 23 -234.3 23.05 -234.25 23.15 -234.3 23.2 -234.25 23.3 -234.3 23.35 -234.25 23.4 -234.1 29.3 -234.3 30.75 -234.55 32.25 -235.9 36.85 -236.4 39.55 -238.35 47.35 -239.45 51.6 -239.3 54.55 -239.2 57 -236 66.3 -236 66.45 -236.45 67.5 -236.8 68.6 -236.85 69.7 -236.85 69.95 -236.85 70.2
L -237.1 70.2 -237.5 70.9
Q -237.45 70.9 -237.4 70.95 -237.3 71 -237.2 71.1 -231 75.25 -222.85 76.15 -218.05 76.7 -208.75 76.95 -197.1 78.2 -185.95 76.85
L -185.95 76.6
Q -187.55 76.5 -189 76 -191.3 75.15 -191.35 73.5 -191.4 72.75 -188.55 71.55 -186.45 70.65 -184.95 70.3 -183 69.85 -181 67.75 -179.35 66.05 -178.7 64.5 -178.15 63.2 -176.55 62.8 -174.1 62.2 -172.9 61.25 -171.25 60.15 -170.1 58.8 -169.1 58.05 -166.05 57.95
L -164.8 57.9
Q -164.7 57.9 -164.55 57.8 -162.3 57.2 -159.7 53.65 -158.05 51.35 -154.1 45.35 -150.95 41 -149.35 38.45 -147.95 36.3 -146.75 34.2
L -147.15 34
Q -146.65 33.5 -146.7 32.1 -146.75 31.25 -147.1 30.25 -147.75 28.3 -149.05 19.25 -149.45 16.7 -150.55 15.45 -151.55 14.25 -151.6 13.05
L -151 10.55
Q -151.05 9.6 -152.05 7.75 -153.35 5.45 -154.75 4.8 -149.05 1.1 -147.9 -3.1 -146.95 -9.65 -144.6 -15.95 -143.75 -12.95 -143.3 -11.5 -143.25 -11.25 -143.15 -9.3 -143.1 -8.65 -143.5 -5.85 -143.45 -5.65 -142.9 -4.45 -142.35 -3.15 -142.35 -2.55 -142.25 -0.9 -143.6 2.5 -143.6 2.7 -143.05 3.05 -142.55 3.35 -142.5 4.2 -141.7 4 -141 3.85 -138.65 3.2 -137.7 3.05 -134.3 2.35 -129.9 2.1 -123.7 1.85 -116.9 2 -116.7 2 -116.55 2
L -116.5 2
Q -110.1 2.2 -109.7 2.2 -108.1 2.1 -107.9 2.05 -107.5 2 -106.85 1.3 -108.146484375 -2.6439453125 -110.4 -14.4 -112.6111328125 -26.16875 -114.2 -29.9 -115.7890625 -33.6189453125 -117.6 -41.95 -118.1171875 -44.493359375 -118.55 -46.5
L -118.3 -45.45
Q -119.2 -55.8 -119.3 -57.45 -119.4 -60.2 -120.7 -62.65 -122.95 -67.05 -123.85 -69.5 -125.25 -73 -127.15 -75.15 -129.25 -77.6 -132.85 -79.3 -142.8 -84.1 -145.2 -85.15 -151.1 -87.75 -156.05 -90.6
L -158.7 -92.1
Q -159.75 -91.1 -159.55 -91.55 -159.3 -92 -159.3 -92.35 -160.15 -94.35 -161 -96.45 -162.1 -99.1 -162.5 -100.3 -165.09609375 -97.5556640625 -166.75 -96.15 -167.33515625 -95.6357421875 -167.8 -95.3 -169.95 -93.85 -173.4 -93.2 -176.25 -92.55 -178.7 -92.1 -183.3 -91.25 -185 -91.15 -186.8 -91.05 -191.5 -93.15 -195.5 -94.85 -196.45 -95.25 -196.45 -95.3 -196.4 -95.35 -196.3 -96.25 -197.1 -97.15 -197.95 -98.05 -198.2 -98.4 -199.9 -97.1 -200.75 -95.8 -201.4 -94.7 -201.45 -94.7 -201.8 -95.75 -202.75 -96.05 -203.15 -96.1 -204.3 -96.05 -205.45 -96 -205.8 -95.3 -206.8 -93.5 -208.1 -92.05 -209.5 -93.1 -215.1 -94.35 -220.45 -95.55 -222.8 -95.45 -223.35 -95.4 -223.35 -95.3 -223.25 -94.7 -223.25 -94.65 -223.55 -94.65 -225.25 -95.5 -227 -96.25 -227.6 -92.55
L -229.5 -92.55
Q -233.55 -91.55 -235.55 -90.55 -241.65 -87.5 -245.2 -87.35
M -199.25 -150.1
Q -195.952734375 -149.71796875 -193.05 -148.7 -192.377734375 -148.4625 -191.75 -148.2 -189.9880859375 -147.4662109375 -188.4 -146.5 -183.6435546875 -143.6048828125 -178.65 -139.55 -173.6021484375 -135.4515625 -168.15 -134.75 -164.1458984375 -134.18828125 -159.5 -135.45 -157.814453125 -135.90859375 -156.05 -136.6 -156.9087890625 -137.6025390625 -157.95 -138.7 -158.93046875 -139.745703125 -160 -140.8 -161.2630859375 -142.0484375 -162.7 -143.35
L -162.7 -143.3 -162.7 -143.35
Q -163.6267578125 -144.1734375 -164.6 -145 -166.02734375 -146.2029296875 -167.8 -147.3 -168.34375 -147.626953125 -168.95 -148 -170.60703125 -148.896875 -172.55 -149.75 -174.43125 -150.567578125 -176.6 -151.3 -183.1021484375 -153.4513671875 -187.25 -153.45 -187.43984375 -153.454296875 -190.45 -153.45 -199.2904296875 -151.428125 -211.15 -150.85 -205.3478515625 -150.8021484375 -199.25 -150.1
M -183.15 -167.85
Q -186 -167.85 -186.6 -167.5 -186.522265625 -166.6806640625 -187 -163.4 -187.3181640625 -160.9134765625 -189.15 -156.5 -189.4212890625 -155.7990234375 -189.75 -155.1
L -189.45 -154.95
Q -186.45 -154.95 -186.25 -154.95 -182.1 -154.95 -175.6 -152.8 -173.45 -152.05 -171.5 -151.2 -169.6 -150.4 -167.95 -149.45 -167.35 -149.15 -166.75 -148.75 -165.05 -147.7 -163.6 -146.5 -162.65 -145.65 -161.7 -144.85 -160.25 -143.55 -158.95 -142.25 -157.95 -141.25 -156.95 -140.2 -155.9 -139.1 -155.05 -138.1 -152.9306640625 -135.6435546875 -152.35 -132.9 -149.9404296875 -137.221484375 -148.75 -139 -147.2806640625 -141.058984375 -146 -141.75
L -146 -142
Q -145.7 -148.05 -149.5 -155.35 -152.38203125 -160.7935546875 -155.25 -162.8 -154.7 -163.6 -154.3 -163.9 -154.1 -164.15 -154.1 -164.45 -154.1 -164.7 -155.6 -165.55 -156.95 -166.35 -157.75 -166.6
L -158.75 -166.6
Q -159.278515625 -165.8306640625 -160.1 -164.8
L -160.15 -164.8
Q -163.430859375 -165.8787109375 -164.55 -166.15 -171.95 -167.85 -183.15 -167.85 Z"/>

<path fill="#F4BBBA" stroke="none" d="
M -116.55 2.75
L -116.55 2
Q -116.7 2 -116.9 2 -123.7 1.85 -129.9 2.1 -134.3 2.35 -137.7 3.05 -138.65 3.2 -141 3.85 -139.6 7.5 -139.35 8.7 -139.25 9.15 -139.15 11.85 -138.9 16.85 -140.4 20.55 -141.35 22.95 -144.4 29.6 -144.6 30 -144.8 30.35 -145.65 32.25 -146.75 34.2 -147.95 36.3 -149.35 38.45 -150.95 41 -154.1 45.35 -158.05 51.35 -159.7 53.65 -162.3 57.2 -164.55 57.8 -164.7 57.9 -164.8 57.9
L -166.05 57.95
Q -169.1 58.05 -170.1 58.8 -171.25 60.15 -172.9 61.25 -174.1 62.2 -176.55 62.8 -178.15 63.2 -178.7 64.5 -179.35 66.05 -181 67.75 -183 69.85 -184.95 70.3 -186.45 70.65 -188.55 71.55 -191.4 72.75 -191.35 73.5 -191.3 75.15 -189 76 -187.55 76.5 -185.95 76.6 -185.55 76.6 -185.15 76.6 -181.95 76.45 -179.6 74.75 -177.8 73.55 -176.95 71.9 -177.05 77.05 -177.05 78.7 -177.05 78.85 -177.05 78.95 -177 79 -176.9 79.1 -173.25 82.35 -167.3 83.25 -163.75 83.8 -156.55 83.5 -156.5 83.5 -156.45 83.5 -154.5 78.9 -152.65 75.15 -151.05 71.9 -149.6 69.3 -146.7 64.3 -142.4 58.45 -141.2 56.75 -139.9 54.95 -138.1 52.6 -135.1 48.8 -132.65 45.6 -130.75 42.75 -130.15 41.9 -127.05 36.4 -125.95 34.4 -125 33.1 -121.35 31.7 -117.8 25.35 -114.3 19 -114.5 14.45 -114.6 12.6 -115.35 9 -116.35 3.9 -116.55 2.75
M -203.5 -132.65
Q -204.7 -133.25 -205.35 -133.6 -206.55 -134.25 -207.45 -134.2 -208.85 -134.15 -211.3 -132.25 -213.7 -130.4 -214 -130.4 -214.25 -130.35 -217.35 -131.05 -220.4 -131.85 -222.35 -131.75 -225.85 -131.6 -229.05 -127.35 -231.35 -124.25 -232.7 -120.5
L -233.2 -120.45
Q -235.8 -118.7 -237.1 -117.5 -239.45 -115.55 -243.15 -113.3 -246.55 -111.15 -249.3 -108.35
L -253 -104.55
Q -257.5 -100.7 -262.35 -96.1 -262.6 -95.9 -269.75 -88.9 -269.9 -88.75 -270 -88.6 -273.6 -84.95 -276.65 -81.15 -278.6 -78.75 -282.1 -74.05 -283.1 -72.6 -287.7 -68.3 -291.65 -64.65 -291.65 -64 -291.55 -62.15 -288.75 -58.7 -286 -55.45 -283.65 -54 -281.7 -52.9 -276.35 -51.95 -275.95 -51.9 -275.55 -51.8 -271.95 -51.2 -270.45 -51.55 -270.05 -51.65 -269.8 -51.85
L -266.85 -51.95
Q -264.85 -56.65 -262.35 -63.25 -255.85 -69.85 -251.15 -77.1 -249.95 -79 -245.2 -87.35 -244.75 -88.2 -244.25 -89.1 -241.85 -93.4 -234.65 -99.05 -230.85 -102.15 -224.85 -106.8 -223.55 -106.9 -221.95 -106.9 -218.7 -107 -215.55 -107.3
L -215.55 -107.35
Q -215.7 -112.2 -215.15 -114.8 -214.05 -119.75 -210.45 -120 -210.45 -118.35 -210.1 -117.9 -209.8 -117.3 -208.55 -117.35 -206.85 -117.45 -205.55 -119.95 -204.85 -121.3 -204.05 -123.35
L -201.55 -123.5
Q -201.35 -122.7 -200.7 -120.55 -200.15 -118.8 -199.95 -116.05 -199.95 -115.95 -199.95 -115.8 -201.85 -113.65 -206.95 -108.8 -207.55 -108.25 -208.1 -107.7 -204.9 -107.15 -202.15 -108.5 -201.1 -109 -199.55 -110.25 -199.45 -109.85 -199.45 -109.35 -199.25 -107.1 -198.85 -103.1 -198.85 -102.95 -198.75 -100.8 -198.75 -99.4 -198.4 -98.6
L -198.25 -98.45 -198.25 -98.4 -198.2 -98.4
Q -197.95 -98.05 -197.1 -97.15 -196.3 -96.25 -196.4 -95.35 -196.45 -95.3 -196.45 -95.25 -195.5 -94.85 -191.5 -93.15 -186.8 -91.05 -185 -91.15 -183.3 -91.25 -178.7 -92.1 -176.25 -92.55 -173.4 -93.2 -169.95 -93.85 -167.8 -95.3 -167.33515625 -95.6357421875 -166.75 -96.15
L -164.25 -101.2 -164.4 -101.1
Q -163.95 -102.75 -162.95 -106 -161.7 -110.05 -161.35 -114.2
L -160.85 -114.15
Q -155.95 -116.4 -154.05 -118.8 -151.9 -121.4 -152.1 -125.75 -152.212109375 -127.6189453125 -153.5 -128.05 -153.93203125 -128.1751953125 -154.5 -128.15
L -155.2 -128 -158.25 -127.45
Q -158.65 -127 -159.65 -125.95 -160.65 -124.95 -161.8 -124.3
L -161.85 -124.55
Q -161.8 -124.7 -159.45 -128.15 -157.4 -131.2 -157.45 -132.65 -157.45 -132.8 -158.5 -133.4 -159.2134765625 -133.828125 -159.5 -135.45 -164.1458984375 -134.18828125 -168.15 -134.75 -173.6021484375 -135.4515625 -178.65 -139.55 -183.6435546875 -143.6048828125 -188.4 -146.5 -189.9880859375 -147.4662109375 -191.75 -148.2 -193.062109375 -146.09140625 -194 -144.45 -194.05 -144.3 -194.15 -144.1 -194.7 -143.05 -195.15 -142.2 -196.15 -139.85 -197.15 -135.95
L -197.15 -135.9 -197.15 -135.9
Q -197.2263671875 -135.3349609375 -197.55 -132.7 -197.75 -130.75 -198.35 -129.85 -198.5 -129.6 -198.65 -129.35
L -198.65 -129.3
Q -200.05 -131.85 -201 -132.15 -202.4 -132.2 -203.5 -132.65 Z"/>

<path fill="#A90C26" stroke="none" d="
M -162.5 -100.3
Q -162.75 -101 -162.75 -101.25
L -164.25 -101.2 -166.75 -96.15
Q -165.09609375 -97.5556640625 -162.5 -100.3
M -190.45 -153.45
Q -187.43984375 -153.454296875 -187.25 -153.45 -183.1021484375 -153.4513671875 -176.6 -151.3 -174.43125 -150.567578125 -172.55 -149.75 -170.60703125 -148.896875 -168.95 -148 -168.34375 -147.626953125 -167.8 -147.3 -166.02734375 -146.2029296875 -164.6 -145 -163.6267578125 -144.1734375 -162.7 -143.35
L -162.7 -143.35
Q -161.2630859375 -142.0484375 -160 -140.8 -158.93046875 -139.745703125 -157.95 -138.7 -156.9087890625 -137.6025390625 -156.05 -136.6 -154.3353515625 -134.5994140625 -153.65 -132.45 -153.4216796875 -131.8326171875 -153.3 -131.25 -153.203125 -131.385546875 -153.1 -131.55 -152.8416015625 -131.9953125 -152.65 -132.4 -152.4818359375 -132.65859375 -152.35 -132.9 -152.9306640625 -135.6435546875 -155.05 -138.1 -155.9 -139.1 -156.95 -140.2 -157.95 -141.25 -158.95 -142.25 -160.25 -143.55 -161.7 -144.85 -162.65 -145.65 -163.6 -146.5 -165.05 -147.7 -166.75 -148.75 -167.35 -149.15 -167.95 -149.45 -169.6 -150.4 -171.5 -151.2 -173.45 -152.05 -175.6 -152.8 -182.1 -154.95 -186.25 -154.95 -186.45 -154.95 -189.45 -154.95
L -189.75 -155.1
Q -189.920703125 -154.634765625 -190.15 -154.2
L -190.1 -154.15
Q -189.945703125 -153.809375 -190.45 -153.45
M -193.05 -148.7
Q -195.952734375 -149.71796875 -199.25 -150.1 -205.3478515625 -150.8021484375 -211.15 -150.85 -211.0255859375 -150.8283203125 -210.9 -150.8 -210.951953125 -150.80390625 -211 -150.8 -211.233984375 -150.7861328125 -211.5 -150.75 -214.120703125 -150.3951171875 -210.05 -143.55 -205.98515625 -136.698046875 -197.5 -135.9
L -197.15 -135.9 -197.15 -135.95
Q -196.15 -139.85 -195.15 -142.2 -194.7 -143.05 -194.15 -144.1 -194.05 -144.3 -194 -144.45 -193.062109375 -146.09140625 -191.75 -148.2 -192.377734375 -148.4625 -193.05 -148.7 Z"/>
</g>

<g id="ph_bike_0_Layer2_0_FILL">
<path fill="#E6E6E6" stroke="none" d="
M 473.15 305.05
Q 473.15 301.7 342.65 299.3 212.15 296.95 27.6 296.95 -156.95 296.95 -287.45 299.3 -417.95 301.7 -417.95 305.05 -417.95 308.4 -287.45 310.75 -156.95 313.15 27.6 313.15 212.15 313.15 342.65 310.75 473.15 308.4 473.15 305.05 Z"/>
</g>

<g id="ph_bike_0_Layer1_0_FILL">
<path fill="#2F2E41" stroke="none" d="
M -195.05 -271.9
Q -200.15 -273.75 -201.05 -271.1 -185.3 -256.6 -184.7 -238.6
L -191.45 -168.5
Q -187.5 -164.75 -183.65 -172.4 -167.75 -221.95 -170.9 -240.35 -173.85 -255.4 -195.05 -271.9
M -370.8 53.4
L -376.05 54.25 -382.25 66.45 -376.85 77.85 -381.85 84.85 -384.85 84.45 -388.25 88.65 -385.45 91.45 -391.05 98.45 -407.85 126.9 -428.25 132.65 -432.45 146.65 -426.85 148.25 -425.85 153.25 -428.45 157.25 -439.45 163.05 -442.05 169.45 -437.05 169.85 -407.75 156.15 -342.65 86.45 -325.4 83.35 -353.65 75.05 -357.85 71.25 -370.8 53.4
M -368.05 -2.35
L -375.85 -0.75
Q -381.65 1.85 -381.3 10.65 -381.3 10.7 -381.3 10.75
L -371.85 15.25
Q -366.15 17.65 -360.45 15.65 -334.65 2.25 -320.05 -10.35 -317.7 -16.95 -320.85 -25.95 -322.4 -29.6 -325.45 -31.75 -332.45 -34.75 -348.25 -37.75
L -355.45 -32.15 -354.05 -23.15 -362.25 -22.75 -362.85 -22.35 -371.05 -12.35 -370.25 -8.75 -366.05 -5.75 -368.05 -2.35
M 105.55 234.1
L 112.3 228.45 206.4 237.85
Q 218.15 239.35 222.4 234.65
L 237.15 217.8
Q 238.05 215.95 235.35 214.3 234.7 214.3 233.95 214.25
L -148.45 175.55 -160.45 163.65 -157.85 160.65 -109.65 167.65 -102.85 163.65 -105.65 160.05 -106.05 150.05 -109.65 145.85 -137.35 138.3 -135.8 143.65 -116.05 149.35 -110.6 156.65 -111.2 162 -120.45 161.2 -121.45 163.75 -126.55 163.15 -127.15 161 -162.55 157.65 -181.65 140.9 -181.65 133.45 -169.05 137.35 -169.6 129.45 -184.85 125.25 -189.85 122.05 -217.4 135.8 -229.65 123.45 -230.25 122.85 -228.45 122.25 -220.85 125.05 -219.45 122.65 -228.25 118.45 -230.6 115.75 -228.85 112.65 -250.2 105.8 -250.55 105.3 -253.3 104.5 -256.05 108.05 -256.35 108.7
Q -254.4 109.6 -252.5 110.6 -251.45 109.45 -250.55 109.45 -245.95 109.45 -241.4 111.4 -237.4 113.1 -236.6 115.1 -240.65 115.7 -243.45 115.7 -243.7 115.7 -243.95 115.7 -243.75 115.8 -243.6 115.95 -239.45 118.7 -235.55 121.95
L -235.5 121.95
Q -235.15 122.25 -234.8 122.55
L -235.4 123.2
Q -235.95 123.25 -236.55 123.25 -235.65 124.25 -235.45 124.7 -235.4 124.85 -235.4 125.35 -235.4 125.95 -236.4 126.35 -237.4 126.75 -239 126.75 -241.55 126.75 -247 124.3 -247.25 124.2 -247.55 124.1
L -250.65 132.6
Q -250.3 132.7 -249.95 132.85 -245.25 134.7 -243.05 134.6 -240.25 134.45 -240.2 134.5 -238.95 134.75 -238.95 136.75 -238.95 136.85 -239 137.05 -240.5 137.65 -242.95 137.55 -247.95 137.55 -250.35 136.6 -250.9 136.35 -251.9 135.9
L -254.2 142.1
Q -252.15 142.95 -250.05 143.25 -248.05 143.6 -245.25 143.55 -245.05 143.75 -244.9 144 -244.8 144.05 -244.75 144.15 -244.25 144.55 -243.7 144.85 -243.25 145.1 -243.25 145.85 -243.25 147.2 -246.9 147.2 -253.9 147.2 -261.75 142.5 -269.25 138 -269.25 134.7 -269.25 132.9 -267.85 132.05 -266.9 131.45 -265.7 131.45 -264.95 131.45 -263.95 131.85 -262.55 132.4 -262.55 133.25 -262.55 133.7 -263.4 134.15 -264.3 134.7 -265.1 134.4
L -265.2 134.35
Q -265.3 134.4 -265.3 134.7 -265.3 136 -261.25 138.45 -259.9 139.15 -258.9 139.7
L -256.5 133.45
Q -257.8 132.75 -259.4 131.85 -265.7 128.6 -265.7 124.05 -265.7 122.5 -264.5 121.65 -263.4 120.85 -261.75 120.85 -259.15 120.85 -258.4 123
L -261.95 123
Q -261.95 123.2 -262.15 124 -262.15 126.55 -258.1 129.05 -257 129.75 -255.4 130.55
L -252.15 121.95
Q -253.5 121.25 -255.1 120.45 -259.85 118.25 -261.3 116.95 -263.15 115.25 -263.15 112.35 -263.15 110.6 -261.55 109.8 -260.45 109.25 -259.1 109.25
L -258.5 107.7
Q -277.9 99.05 -300.9 99.05 -344.15 99.05 -374.7 129.6 -405.3 160.2 -405.3 203.45 -405.3 246.7 -374.7 277.25 -344.15 307.85 -300.9 307.85 -257.65 307.85 -227.05 277.25 -203.55 253.75 -198.15 222.8
L -154.5 218.15
Q -154.45 218.15 -154.4 218.15
L -154.35 218.2 -153.95 218.35
Q -153.9 218.35 -153.85 218.4
L -147.35 217.75 -141.8 211.75 -134.95 226.95 -137.25 230.05 -133.85 239.05 -128.85 240.45 -124.25 238.25 -114.05 238.65 -113.45 236.45 -107.85 236.45
Q -100.65 217.6 -93.45 217.85
L -81.85 218.05 -72.45 239.5 -60.85 241.05 -31.5 240.1 -28.45 243.7 -13.05 243.7 -10.7 240.15 13.8 241.2 17.15 238.9 23.7 238.9 25.3 228.8 25.7 228.25 99.2 235.2 105.55 234.1
M 81.25 210.5
L 89.95 225.25 74.3 224 75.4 210.35 81.25 210.5
M 56 212.7
L 45.4 214.25
Q 44.75 208.9 48.95 207.85 53.75 206.75 56 212.7
M 28.7 205.35
L 37.95 206.6 33.15 211.05 27.65 210.7 28.7 205.35
M -271.75 143
Q -271.65 142.15 -271.2 141.5 -270.5 140.5 -269.25 140.5 -267.95 140.5 -267.45 142.25 -266.75 144.45 -266.5 144.65 -265.5 145.55 -263.95 146.25 -261.85 147.15 -260.4 147.8 -257.3 149.3 -255.6 149.95 -252.65 151.15 -250.35 151.15 -250.35 151.55 -250.15 152.7 -250.15 153.05 -250.95 153.3 -251.65 153.5 -252.3 153.5 -254.55 153.5 -257 152.95 -255.25 154.45 -253.6 156.1 -252.2 157.5 -250.9 159
L -257.7 161.4 -258 161.5 -264.75 163.9 -268.65 165.25 -287.85 163.25 -352.4 188.6 -355.05 189.65
Q -358.05 191.2 -360.2 193.2 -363.4 196.15 -364.65 200.05 -366.6 206.9 -363.05 214.85 -362.05 215.95 -359.25 218.05 -355.95 220.5 -350.2 224.3
L -339.05 232.45
Q -333.85 236.75 -323.05 236.05
L -253.65 228.7 -245.7 227.85 -238.15 227.05
Q -243 240 -253.6 250.6 -273.2 270.2 -300.9 270.2 -328.55 270.2 -348.1 250.6 -367.7 231.05 -367.7 203.4 -367.7 175.7 -348.1 156.1 -328.55 136.55 -300.9 136.55 -285 136.55 -271.75 143
M -215.2 193.35
Q -215.2 191.35 -213.8 189.95 -212.4 188.55 -210.4 188.55 -208.4 188.55 -207 189.95 -205.6 191.35 -205.6 193.35 -205.6 195.35 -207 196.75 -208.4 198.15 -210.4 198.15 -212.4 198.15 -213.8 196.75 -215.2 195.35 -215.2 193.35
M -280.55 204.2
Q -278.4 204.2 -276.85 205.7 -275.35 207.25 -275.35 209.4 -275.35 211.55 -276.85 213.05 -278.4 214.6 -280.55 214.6 -282.7 214.6 -284.2 213.05 -285.75 211.55 -285.75 209.4 -285.75 207.25 -284.2 205.7 -282.7 204.2 -280.55 204.2
M 332.35 121.6
L 328.05 102.15 324.85 87.5 309.95 111.1 339.95 171.9 339.55 171.2 362.05 216.55 369.45 219.55 369.7 220 381.2 213.8 382.05 208.6 373.55 189.75 372.8 189.2 371.75 190.5
Q 369.75 192.9 366.4 189.75
L 332.35 121.6
M 374.8 204.15
Q 376.85 206.25 376.85 209.2 376.85 212.15 374.8 214.2 372.7 216.3 369.75 216.3 366.8 216.3 364.75 214.2 362.65 212.15 362.65 209.2 362.65 206.25 364.75 204.15 366.8 202.1 369.75 202.1 372.7 202.1 374.8 204.15
M 392.7 107.4
Q 375.95 113.55 379.55 126.55
L 381.15 134
Q 399.75 137.85 414.05 152.1 433.6 171.7 433.6 199.4 433.6 227.05 414.05 246.6 394.45 266.2 366.75 266.2 339.1 266.2 319.55 246.6 299.95 227.05 299.95 199.4 299.95 171.7 319.55 152.1 321.9 149.75 324.35 147.7
L 307.75 114.55 293.25 137.55 264.25 178.75
Q 262.35 188.7 262.35 199.45 262.35 242.7 292.95 273.25 323.5 303.85 366.75 303.85 410 303.85 440.6 273.25 471.15 242.7 471.15 199.45 471.15 156.2 440.6 125.6 429.260546875 114.260546875 416.1 107.1
L 416.1 107.1 416.05 107.1 415.95 107.05
Q 402.35 105.8 392.7 107.4
M 367.45 152.8
Q 365.8 152.8 364.65 153.95 363.5 155.1 363.5 156.75 363.5 158.4 364.65 159.55 365.8 160.7 367.45 160.7 369.1 160.7 370.25 159.55 371.4 158.4 371.4 156.75 371.4 155.1 370.25 153.95 369.1 152.8 367.45 152.8
M 360.4 128.65
Q 358.6 126.9 356.1 126.9 353.6 126.9 351.85 128.65 350.05 130.45 350.05 132.95 350.05 133.75 350.2 134.5 350.65 136 351.85 137.2 353.6 139 356.1 139 358.6 139 360.4 137.2 362.15 135.45 362.15 132.95 362.15 132.8 362.15 132.7 362.05 130.35 360.4 128.65
M 134.8 -193.7
Q 134.05 -193.95 133.2 -193.95 132.05 -193.95 131.1 -193.55 130.15 -193.15 129.35 -192.35 127.75 -190.75 127.75 -188.5 127.75 -186.2 129.35 -184.6 130.95 -183 133.2 -183 135.5 -183 137.1 -184.6 138.1 -185.6 138.45 -186.85
L 138.5 -186.9
Q 138.7 -187.65 138.7 -188.5 138.7 -190.75 137.1 -192.35 136.15 -193.3 135 -193.65 134.9 -193.7 134.8 -193.7
M 141.45 -199.25
Q 139.55 -199.25 138.05 -198.3 137.4 -197.9 136.85 -197.35 136.3 -196.8 135.85 -196.1 138 -195.75 139.6 -194.2 141.65 -192.1 141.65 -189.15 141.65 -187.6 141.05 -186.25 141.25 -186.25 141.45 -186.25 144.15 -186.25 146.05 -188.15 147.95 -190.05 147.95 -192.75 147.95 -195.45 146.05 -197.35 144.15 -199.25 141.45 -199.25
M 132.65 -218.1
Q 132.5 -217.3 132.5 -216.4 132.5 -213.75 133.9 -211.65 134.35 -211 135 -210.35 137.5 -207.85 141.05 -207.85 144.6 -207.85 147.1 -210.35 149.6 -212.85 149.6 -216.4 149.6 -219.95 147.1 -222.45 144.6 -224.95 141.05 -224.95 137.5 -224.95 135 -222.45 133.1 -220.55 132.65 -218.1
M 200.4 -250.2
L 187.75 -256.95 184.45 -246 201.95 -212.75 200.2 -211.3 187.1 -234.3 181.75 -234.05 181.2 -232.3 175.6 -231.95 172.85 -238.8 170.55 -240.6 154.6 -239.75 150.95 -236.3 145.55 -236.1 146.2 -231.25 144.6 -228.9 144.55 -228.45
Q 148.25 -228.05 151 -225.3 154.25 -222.05 154.25 -217.45 154.25 -212.85 151 -209.6 147.75 -206.35 143.15 -206.35 142.35 -206.35 141.6 -206.45
L 141.4 -202.15 141.45 -201.7
Q 142.15 -201.85 142.95 -201.85 146.35 -201.85 148.75 -199.5 151.1 -197.1 151.1 -193.7 151.1 -190.3 148.75 -187.95 147.85 -187.05 146.8 -186.45 146.1 -186.1 145.3 -185.85
L 145.4 -185.35 146.25 -183.6 160.6 -184 162.75 -187.55 167.9 -186.3 171.25 -190.45 170.4 -182.2 170 -182.05
Q 167.45 -180.9 164.95 -179.6 162.65 -178.5 160.35 -177.25 158.3 -176 156.3 -174.65 154.5 -173.4 152.95 -171.8 151.2 -169.95 150.45 -167.5 150.1 -166.4 150 -165.2 149.75 -162.5 149.7 -159.75 149.7 -158.2 149.8 -156.6 149.85 -155.05 150 -153.5 150.1 -152 150.3 -150.5 150.45 -149 150.65 -147.45 150.85 -146 151.15 -144.55 151.7 -141.7 152.3 -138.85
L 166.7 -145.2 167.1 -145.45 167.5 -147.9 167.65 -148.2 166.7 -165.6 168.6 -166.55 171.5 -161.65 170.7 -158.6 172.05 -155.75 172.45 -152.15 170.7 -150.8 170.7 -143.65 153 -135.85 152.3 -131.75 168.5 -99.8 168.35 -99.6 164.4 -96.9 166.85 -85.5 165.1 -83.45 166.3 -76.7 173.15 -63.3 177.15 -63 180.3 -56.6 185.8 -56.25 189.05 -51.5 184.2 -45.65 200.9 -15.15
Q 197.95 81.65 182.45 145
L 9.05 124.5 -8.2 77.55 -8.95 65.1 10.6 35.65 5.65 32.8 3.15 36.35 -0.05 29.6 1 23.25 1 23.2 19.85 22.85
Q 25.2 3.95 12.75 -23.3 -6 -62.3 -44.05 -66.65
L -160.9 -70.5
Q -185.4 -69.4 -194.65 -29.35
L -197.15 -40.35 -210.75 -43.4
Q -206.95 -44.5 -202.95 -45.95 -189.65 -51.8 -184.45 -74.45
L -179.25 -129
Q -179.65 -132.45 -182.2 -132.55 -185.35 -132.85 -186.35 -129.8
L -192 -76.85
Q -193.4 -71.2 -195.75 -65.9 -198.05 -60.35 -202.35 -56.15 -206.5 -52 -211.8 -50.2 -217.15 -48.35 -222.55 -47.4 -227.85 -46.3 -233.4 -46.1 -234.55 -46 -235.75 -45.95
L -408.3 -62.3 -416.1 -59.1 -410.25 -53.75 -338.45 -47.95 -258.55 -41.55 -157 -14.75 -153.85 -10.1
Q -131.85 -5.4 -119 7.25 -110.15 16.1 -101.95 38.15
L -70 115.9
Q -61.1 138.7 -36.3 143.1
L 188.1 168.1
Q 211.45 171.55 225.05 154.25
L 288.95 33.2
Q 296.05 19.2 285.45 1.25
L 188.15 -157.5 181.4 -162.8 183.15 -166.35 199.5 -166 204.75 -170.7 190.25 -180.5 191.2 -184.2 201.85 -184.85 203.4 -186.65 203.85 -198.45 202.15 -198.55 200.35 -195.2 198.25 -195.6 197.7 -202.65 198.35 -204.05 205.85 -203.6 218.9 -179.45 222.2 -180.75 225.9 -203.5 200.4 -250.2 Z"/>

<path fill="#C8102E" stroke="none" d="
M -416.7 -273.95
Q -427.8 -274.05 -430.85 -262.5
L -438.05 -162.5
Q -439.75 -151.45 -443.8 -146.2
L -462.4 -130.9 -465 -127.45 -466.15 -125.85
Q -467.25 -80.6 -435.95 -69.1
L -246.55 -52.1
Q -207.35 -46.6 -200.85 -73.4 -200.75 -73.8 -200.7 -74.15
L -191.45 -168.5 -184.7 -238.6
Q -185.3 -256.6 -201.05 -271.1 -202.65 -272.6 -204.45 -274.05 -205.8 -274.05 -207.3 -273.95 -217.9 -273.35 -240.6 -267.7 -240.8 -267.6 -251.25 -264.85 -261.75 -262.1 -281.05 -263
L -416.7 -273.95
M -135.8 143.65
L -137.35 138.3 -169.6 129.45 -169.05 137.35 -181.65 133.45 -181.65 140.9 -162.55 157.65 -127.15 161 -126.55 163.15 -121.45 163.75 -120.45 161.2 -111.2 162 -110.6 156.65 -116.05 149.35 -135.8 143.65
M -347.85 -39.95
L -348.25 -37.75
Q -332.45 -34.75 -325.45 -31.75 -322.4 -29.6 -320.85 -25.95 -317.7 -16.95 -320.05 -10.35 -334.65 2.25 -360.45 15.65 -366.15 17.65 -371.85 15.25
L -381.3 10.75 -381.45 10.65 -381.45 10.7 -384.6 33.4 -384.45 33.45 -384.4 33.5 -353.65 54.55 -105.45 125.8
Q -92.8 131.85 -83.3 139.75
L -128.85 32.8
Q -138.95 16.1 -165.95 10
L -346.65 -40.4 -347.85 -39.95
M 307 113.6
L 307.75 114.55 307.05 113.6 307 113.6
M 337.55 67.35
L 324.85 87.5 328.05 102.15
Q 345.95 95.05 366.75 95.05 393.85 95.05 415.95 107.05
L 416.05 107.1 416.1 107.1 416.1 107.1 433.55 110.25
Q 439.55 111.2 441 106.85 440.95 102.25 434.25 97.1 399.5 68.3 337.55 67.35
M 207.55 -171.15
L 206.25 -172.05 204.75 -170.7 199.5 -166 183.15 -166.35 181.4 -162.8 188.15 -157.5 285.45 1.25
Q 296.05 19.2 288.95 33.2
L 225.05 154.25
Q 211.45 171.55 188.1 168.1
L -36.3 143.1
Q -61.1 138.7 -70 115.9
L -101.95 38.15
Q -110.15 16.1 -119 7.25 -131.85 -5.4 -153.85 -10.1
L -157 -14.75 -258.55 -41.55 -338.45 -47.95 -342.65 -44.4 -161.95 6
Q -134.95 12.1 -124.85 28.8
L -73.4 149.45
Q -66.85 160.3 -54 164.65
L 189.85 188.25
Q 227.6 190.8 247.2 160.4
L 312.15 37.25
Q 321.85 14.15 309.65 -4.1
L 207.55 -171.15 Z"/>

<path fill="#A90C26" stroke="none" d="
M -430.85 -262.5
Q -427.8 -274.05 -416.7 -273.95
L -281.05 -263
Q -261.75 -262.1 -251.25 -264.85 -240.8 -267.6 -240.6 -267.7 -217.9 -273.35 -207.3 -273.95 -206.45 -277.85 -207.85 -280.9 -216.25 -291.65 -225.7 -293.8
L -419.15 -307.8
Q -453.6 -309.7 -457.7 -279
L -471.15 -132.45
Q -471.4 -129.95 -465.45 -127.6 -465.2 -127.55 -465 -127.45
L -462.4 -130.9 -443.8 -146.2
Q -439.75 -151.45 -438.05 -162.5
L -430.85 -262.5
M 379.55 126.55
Q 375.95 113.55 392.7 107.4 402.35 105.8 415.95 107.05 393.85 95.05 366.75 95.05 345.95 95.05 328.05 102.15
L 332.35 121.6 366.4 189.75
Q 369.75 192.9 371.75 190.5
L 372.8 189.2 382.4 177.35
Q 385.95 173 386.4 166 386.8 160.45 385.25 153.2
L 382.65 141.15 381.15 134 379.55 126.55
M 356.1 126.9
Q 358.6 126.9 360.4 128.65 362.05 130.35 362.15 132.7 362.15 132.8 362.15 132.95 362.15 135.45 360.4 137.2 358.6 139 356.1 139 353.6 139 351.85 137.2 350.65 136 350.2 134.5 350.05 133.75 350.05 132.95 350.05 130.45 351.85 128.65 353.6 126.9 356.1 126.9
M 364.65 153.95
Q 365.8 152.8 367.45 152.8 369.1 152.8 370.25 153.95 371.4 155.1 371.4 156.75 371.4 158.4 370.25 159.55 369.1 160.7 367.45 160.7 365.8 160.7 364.65 159.55 363.5 158.4 363.5 156.75 363.5 155.1 364.65 153.95
M 237.15 -174.9
L 231.1 -172.05 207.55 -172.05 207.55 -171.15 309.65 -4.1
Q 321.85 14.15 312.15 37.25
L 247.2 160.4
Q 227.6 190.8 189.85 188.25
L -54 164.65
Q -66.85 160.3 -73.4 149.45
L -124.85 28.8
Q -134.95 12.1 -161.95 6
L -342.65 -44.4 -346.95 -40.7 -346.65 -40.4 -165.95 10
Q -138.95 16.1 -128.85 32.8
L -83.3 139.75
Q -92.8 131.85 -105.45 125.8
L -353.65 54.55 -384.4 33.5 -384.45 33.5 -384.65 33.85 -370.8 53.4 -357.85 71.25 -353.65 75.05 -325.4 83.35 -253.3 104.5 -250.55 105.3 -250.2 105.8 -228.85 112.65 -230.6 115.75 -228.25 118.45 -219.45 122.65 -220.85 125.05 -228.45 122.25 -229.65 123.45 -217.4 135.8 -189.85 122.05 -184.85 125.25 -169.6 129.45 -137.35 138.3 -109.65 145.85 -106.05 150.05 -105.65 160.05 -102.85 163.65 -109.65 167.65 -157.85 160.65 -160.45 163.65 -148.45 175.55 233.95 214.25
Q 234.7 214.3 235.35 214.3 239.25 214.15 240.7 212.15
L 264.25 178.75 293.25 137.55 307.75 114.55 307 113.6 307.05 113.6 307.75 114.55 309.95 111.1 324.85 87.5 337.55 67.35 358.25 34.6 367.05 18.8 367.2 13.65 349.7 -19 351.5 -29.65
Q 350 -31.85 348.45 -34 348.4 -34.1 348.3 -34.2 327.25 -64.45 306.35 -91.75 271.5 -137.35 237.15 -174.9 Z"/>

<path fill="#3F3D56" stroke="none" d="
M -255.85 141.3
Q -255 141.75 -254.2 142.1
L -251.9 135.9
Q -253.55 135.05 -256.5 133.45
L -258.9 139.7
Q -256.5 141 -255.85 141.3
M -250.65 132.6
L -247.55 124.1
Q -249.4 123.2 -252.15 121.95
L -255.4 130.55
Q -253.4 131.45 -250.65 132.6
M -250.55 109.45
Q -251.45 109.45 -252.5 110.6 -254.4 109.6 -256.35 108.7 -257.4 108.15 -258.5 107.7
L -259.1 109.25
Q -258.5 109.25 -257.35 110.15 -257.3 110.15 -257.25 110.2 -256.05 111.15 -256.05 111.5 -256.05 112.3 -257.95 112.7 -258.9 112.85 -260 112.95 -257.5 116.2 -251.05 119.1 -249.5 119.8 -247.7 120.45 -247 120.7 -246.4 120.95 -240.1 123.15 -236.55 123.25 -235.95 123.25 -235.4 123.2
L -234.8 122.55
Q -235.15 122.25 -235.5 121.95
L -235.55 121.95
Q -239.45 118.7 -243.6 115.95 -243.75 115.8 -243.95 115.7 -243.7 115.7 -243.45 115.7 -240.65 115.7 -236.6 115.1 -237.4 113.1 -241.4 111.4 -245.95 109.45 -250.55 109.45
M -253.65 228.7
Q -257.3 235.35 -263.05 241.1 -278.7 256.75 -300.85 256.75 -323 256.75 -338.6 241.1 -346.25 233.45 -350.2 224.3 -355.95 220.5 -359.25 218.05 -355.5 233.7 -343.3 245.85 -325.7 263.45 -300.8 263.45 -275.9 263.45 -258.25 245.85 -250.05 237.65 -245.7 227.85
L -253.65 228.7
M -258 161.5
L -258.25 160.8
Q -275.9 143.2 -300.8 143.2 -325.7 143.2 -343.3 160.8 -357.25 174.7 -360.2 193.2 -358.05 191.2 -355.05 189.65
L -352.4 188.6
Q -348.8 175.7 -338.6 165.5 -323 149.85 -300.85 149.85 -279.9 149.85 -264.75 163.9
L -258 161.5
M 339.55 171.2
L 339.95 171.9 309.95 111.1 307.75 114.55 324.35 147.7 327.45 153.9
Q 325.85 155.3 324.35 156.8 306.75 174.4 306.75 199.3 306.75 224.25 324.35 241.85 341.95 259.45 366.85 259.45 391.8 259.45 409.4 241.85 427 224.25 427 199.3 427 174.4 409.4 156.8 397.65 145.05 382.65 141.15
L 385.25 153.2
Q 386.8 160.45 386.4 166 390.55 168.45 394.2 172.1 405.45 183.35 405.45 199.3 405.45 215.25 394.2 226.55 382.95 237.8 366.95 237.8 351.05 237.8 339.75 226.55 328.5 215.25 328.5 199.3 328.5 184.9 337.65 174.35
L 359.9 218.75 367 221.45 369.7 220 369.45 219.55 362.05 216.55 339.55 171.2
M 376.85 209.2
Q 376.85 206.25 374.8 204.15 372.7 202.1 369.75 202.1 366.8 202.1 364.75 204.15 362.65 206.25 362.65 209.2 362.65 212.15 364.75 214.2 366.8 216.3 369.75 216.3 372.7 216.3 374.8 214.2 376.85 212.15 376.85 209.2 Z"/>

<path fill="#D0CDE1" stroke="none" d="
M -267.85 132.05
Q -269.25 132.9 -269.25 134.7 -269.25 138 -261.75 142.5 -253.9 147.2 -246.9 147.2 -243.25 147.2 -243.25 145.85 -243.25 145.1 -243.7 144.85 -244.25 144.55 -244.75 144.15 -244.8 144.05 -244.9 144 -245.05 143.75 -245.25 143.55 -248.05 143.6 -250.05 143.25 -252.15 142.95 -254.2 142.1 -255 141.75 -255.85 141.3 -256.5 141 -258.9 139.7 -259.9 139.15 -261.25 138.45 -265.3 136 -265.3 134.7 -265.3 134.4 -265.2 134.35
L -265.1 134.4
Q -264.3 134.7 -263.4 134.15 -262.55 133.7 -262.55 133.25 -262.55 132.4 -263.95 131.85 -264.95 131.45 -265.7 131.45 -266.9 131.45 -267.85 132.05
M -261.95 123
L -258.4 123
Q -259.15 120.85 -261.75 120.85 -263.4 120.85 -264.5 121.65 -265.7 122.5 -265.7 124.05 -265.7 128.6 -259.4 131.85 -257.8 132.75 -256.5 133.45 -253.55 135.05 -251.9 135.9 -250.9 136.35 -250.35 136.6 -247.95 137.55 -242.95 137.55 -240.5 137.65 -239 137.05 -238.95 136.85 -238.95 136.75 -238.95 134.75 -240.2 134.5 -240.25 134.45 -243.05 134.6 -245.25 134.7 -249.95 132.85 -250.3 132.7 -250.65 132.6 -253.4 131.45 -255.4 130.55 -257 129.75 -258.1 129.05 -262.15 126.55 -262.15 124 -261.95 123.2 -261.95 123
M -259.1 109.25
Q -260.45 109.25 -261.55 109.8 -263.15 110.6 -263.15 112.35 -263.15 115.25 -261.3 116.95 -259.85 118.25 -255.1 120.45 -253.5 121.25 -252.15 121.95 -249.4 123.2 -247.55 124.1 -247.25 124.2 -247 124.3 -241.55 126.75 -239 126.75 -237.4 126.75 -236.4 126.35 -235.4 125.95 -235.4 125.35 -235.4 124.85 -235.45 124.7 -235.65 124.25 -236.55 123.25 -240.1 123.15 -246.4 120.95 -247 120.7 -247.7 120.45 -249.5 119.8 -251.05 119.1 -257.5 116.2 -260 112.95 -258.9 112.85 -257.95 112.7 -256.05 112.3 -256.05 111.5 -256.05 111.15 -257.25 110.2 -257.3 110.15 -257.35 110.15 -258.5 109.25 -259.1 109.25
M -276.85 205.7
Q -278.4 204.2 -280.55 204.2 -282.7 204.2 -284.2 205.7 -285.75 207.25 -285.75 209.4 -285.75 211.55 -284.2 213.05 -282.7 214.6 -280.55 214.6 -278.4 214.6 -276.85 213.05 -275.35 211.55 -275.35 209.4 -275.35 207.25 -276.85 205.7
M -213.8 189.95
Q -215.2 191.35 -215.2 193.35 -215.2 195.35 -213.8 196.75 -212.4 198.15 -210.4 198.15 -208.4 198.15 -207 196.75 -205.6 195.35 -205.6 193.35 -205.6 191.35 -207 189.95 -208.4 188.55 -210.4 188.55 -212.4 188.55 -213.8 189.95
M -263.05 241.1
Q -257.3 235.35 -253.65 228.7
L -323.05 236.05
Q -333.85 236.75 -339.05 232.45
L -350.2 224.3
Q -346.25 233.45 -338.6 241.1 -323 256.75 -300.85 256.75 -278.7 256.75 -263.05 241.1
M -268.65 165.25
L -264.75 163.9
Q -279.9 149.85 -300.85 149.85 -323 149.85 -338.6 165.5 -348.8 175.7 -352.4 188.6
L -287.85 163.25 -268.65 165.25
M -271.2 141.5
Q -271.65 142.15 -271.75 143 -285 136.55 -300.9 136.55 -328.55 136.55 -348.1 156.1 -367.7 175.7 -367.7 203.4 -367.7 231.05 -348.1 250.6 -328.55 270.2 -300.9 270.2 -273.2 270.2 -253.6 250.6 -243 240 -238.15 227.05
L -245.7 227.85
Q -250.05 237.65 -258.25 245.85 -275.9 263.45 -300.8 263.45 -325.7 263.45 -343.3 245.85 -355.5 233.7 -359.25 218.05 -362.05 215.95 -363.05 214.85 -366.6 206.9 -364.65 200.05 -363.4 196.15 -360.2 193.2 -357.25 174.7 -343.3 160.8 -325.7 143.2 -300.8 143.2 -275.9 143.2 -258.25 160.8 -257.95 161.1 -257.7 161.4
L -250.9 159
Q -252.2 157.5 -253.6 156.1 -255.25 154.45 -257 152.95 -254.55 153.5 -252.3 153.5 -251.65 153.5 -250.95 153.3 -250.15 153.05 -250.15 152.7 -250.35 151.55 -250.35 151.15 -252.65 151.15 -255.6 149.95 -257.3 149.3 -260.4 147.8 -261.85 147.15 -263.95 146.25 -265.5 145.55 -266.5 144.65 -266.75 144.45 -267.45 142.25 -267.95 140.5 -269.25 140.5 -270.5 140.5 -271.2 141.5
M 394.2 172.1
Q 390.55 168.45 386.4 166 385.95 173 382.4 177.35
L 372.8 189.2 373.55 189.75 382.05 208.6 381.2 213.8 369.7 220 367 221.45 359.9 218.75 337.65 174.35
Q 328.5 184.9 328.5 199.3 328.5 215.25 339.75 226.55 351.05 237.8 366.95 237.8 382.95 237.8 394.2 226.55 405.45 215.25 405.45 199.3 405.45 183.35 394.2 172.1
M 381.15 134
L 382.65 141.15
Q 397.65 145.05 409.4 156.8 427 174.4 427 199.3 427 224.25 409.4 241.85 391.8 259.45 366.85 259.45 341.95 259.45 324.35 241.85 306.75 224.25 306.75 199.3 306.75 174.4 324.35 156.8 325.85 155.3 327.45 153.9
L 324.35 147.7
Q 321.9 149.75 319.55 152.1 299.95 171.7 299.95 199.4 299.95 227.05 319.55 246.6 339.1 266.2 366.75 266.2 394.45 266.2 414.05 246.6 433.6 227.05 433.6 199.4 433.6 171.7 414.05 152.1 399.75 137.85 381.15 134
M 312.8 -91.8
L 306.35 -91.75
Q 327.25 -64.45 348.3 -34.2
L 349 -40.65
Q 333.65 -66.9 312.8 -91.8
M 141.45 -201.7
Q 139 -201.3 137.2 -199.5 135.75 -198.05 135.15 -196.2 134.85 -196.25 134.55 -196.25 132.1 -196.25 130.25 -194.8 129.9 -194.55 129.55 -194.2 127.45 -192.1 127.45 -189.15
L 127.75 -188.5
Q 127.75 -190.75 129.35 -192.35 130.15 -193.15 131.1 -193.55 132.05 -193.95 133.2 -193.95 134.05 -193.95 134.8 -193.7 134.9 -193.7 135 -193.65 136.15 -193.3 137.1 -192.35 138.7 -190.75 138.7 -188.5 138.7 -187.65 138.5 -186.9
L 138.45 -186.85
Q 138.1 -185.6 137.1 -184.6 135.5 -183 133.2 -183 130.95 -183 129.35 -184.6
L 129.2 -184.5
Q 129.35 -184.35 129.55 -184.15 131.6 -182.05 134.55 -182.05 137.5 -182.05 139.6 -184.15 140.35 -184.9 140.85 -185.8 141.85 -185.55 142.95 -185.55 144.2 -185.55 145.3 -185.85 146.1 -186.1 146.8 -186.45 147.85 -187.05 148.75 -187.95 151.1 -190.3 151.1 -193.7 151.1 -197.1 148.75 -199.5 146.35 -201.85 142.95 -201.85 142.15 -201.85 141.45 -201.7
M 138.05 -198.3
Q 139.55 -199.25 141.45 -199.25 144.15 -199.25 146.05 -197.35 147.95 -195.45 147.95 -192.75 147.95 -190.05 146.05 -188.15 144.15 -186.25 141.45 -186.25 141.25 -186.25 141.05 -186.25 141.65 -187.6 141.65 -189.15 141.65 -192.1 139.6 -194.2 138 -195.75 135.85 -196.1 136.3 -196.8 136.85 -197.35 137.4 -197.9 138.05 -198.3
M 151 -225.3
Q 148.25 -228.05 144.55 -228.45 143.9 -228.55 143.15 -228.55 138.55 -228.55 135.3 -225.3 132.3 -222.3 132.05 -218.15
L 132.65 -218.1
Q 133.1 -220.55 135 -222.45 137.5 -224.95 141.05 -224.95 144.6 -224.95 147.1 -222.45 149.6 -219.95 149.6 -216.4 149.6 -212.85 147.1 -210.35 144.6 -207.85 141.05 -207.85 137.5 -207.85 135 -210.35 134.35 -211 133.9 -211.65
L 133.7 -211.55
Q 134.35 -210.55 135.3 -209.6 138 -206.9 141.6 -206.45 142.35 -206.35 143.15 -206.35 147.75 -206.35 151 -209.6 154.25 -212.85 154.25 -217.45 154.25 -222.05 151 -225.3 Z"/>
</g>

<g id="PH_logo_round_0_Layer0_0_FILL">
<path fill="#FFFFFF" stroke="none" d="
M -437.6 93
Q -444.7 84.45 -455.8 84 -477.25 83.65 -478.75 112.35 -479.7 130.5 -473.2 154.45 -468.8 168.8 -461.15 175.15 -452.95 182.2 -439.35 184.5 -430 186.2 -425.55 180.5 -421.75 175.5 -422.85 170.55 -425 159.05 -426.7 134 -427.3 120.45 -429 112.55 -431.7 100.45 -437.6 93
M 349 361.55
L 355.7 361.55 355.7 358.1 338.1 358.1 338.1 361.55 344.8 361.55 344.8 380.3 349 380.3 349 361.55
M 363.35 361.95
L 363.55 361.95 370.05 380.3 373.5 380.3 380.05 361.95 380.05 380.3 384.45 380.3 384.45 358.1 377.9 358.1 371.8 375.3 371.6 375.3 365.65 358.1 359.15 358.1 359.15 380.3 363.35 380.3 363.35 361.95
M 216.6 -423.75
Q 132 -450.3 64.8 -450.75 25.3 -451.1 -50.05 -438.1 -125.3 -424.9 -194.15 -396.35 -273.3 -363.55 -328.7 -316.35 -373.3 -278.5 -405.05 -231.2 -442.5 -175.6 -456.95 -114.85 -473.4 -44.75 -460.95 27.2 -458.1 42.35 -445.45 47.65 -432.45 53.05 -432.25 32.55 -430.3 -171.15 -294.85 -281.9 -226.5 -338.05 -152.8 -354.45
L -142.85 -356.55
Q -135.15 -358.65 -129.85 -357.7 -127.75 -357.2 -127.15 -354.85 -126.6 -352.3 -129.1 -351.2 -165.5 -336.5 -195.1 -323.05 -250.95 -297.6 -278.95 -273.1 -323.65 -233.55 -351.3 -191.2 -391.05 -130.85 -403.75 -56.25 -407 -36.85 -407 18.95 -407.15 85.2 -400.85 131.7 -397.25 159.65 -380.4 196.95 -365.2 230.15 -349.95 249.2 -315.9 293 -258.85 332.85 -209.1 367.85 -170.05 381.65 -152.1 387.85 -124.3 392.95 -107.7 395.7 -86.95 399.45 -82.4 400.55 -82.55 405 -83 409.2 -87.95 409.8 -110.55 413.65 -156.25 402.1 -203.6 390.5 -246.4 369.6 -276.45 354.7 -303.65 331.7 -323.75 314.85 -350.15 286.35 -361.35 274.05 -388.8 237.35 -405.2 215.35 -412.35 216.85 -425.15 219.55 -420.2 243.65 -416.15 261.8 -406.4 279.65 -386.15 317.85 -346.3 355.25 -313.55 386.05 -286.2 400.8 -224.35 434.65 -151.65 445.75 -101.25 453.4 -54.65 449.4 70.85 438.9 169.3 383 247.85 338.35 292.95 276.35 333.25 219.65 351.3 182.2 387.45 106 386.55 25.05 385.7 -32.6 381.35 -70.6 371.25 -159.8 342.5 -205.35 318.45 -244 303.45 -260.5 258.45 -310.3 184.4 -346.8 134.05 -371.25 102.7 -372.25 61.15 -373 63.65 -390.05 64.8 -397.35 100.2 -392.15 126.05 -388.6 140.8 -384.3 175.15 -374.85 220.8 -349.5 260.3 -327.35 296.4 -299.9 381 -235.25 407.95 -99.9 421.75 -32.35 418.3 22.4 414.25 176.65 332.75 282.7 279.25 351.7 178.5 411.9 176.55 413.1 173.5 417.6 170.05 423.1 171.6 425.65 174.3 429.1 183.45 428.15 208.45 425.7 238.6 407.65 257.5 396.35 288.9 371.9 391.85 290.9 435.35 207.1 450.25 178.7 458.5 148.15 465.3 118 467.7 109.3 476.65 71.3 478.4 3.05 480.15 -60.1 474.95 -88.4 467.05 -154.6 430.75 -229.3 358.2 -379 216.6 -423.75
M 92.35 -271
L 93.15 -271.2
Q 98.3 -271.45 100.95 -268.5 103.25 -265.9 105 -259.7
L 108.25 -246.7
Q 115.9 -210.95 118.75 -206.3 122.85 -204.7 147.5 -197.15 200.65 -180.15 211 -175.3
L 222.9 -169.95
Q 253.9 -156.35 265.95 -149.1 280.15 -140.7 280.3 -134.75 280.9 -128.1 275.9 -123.05 270.35 -116.7 262.15 -118.3 256.45 -119.05 202.2 -118.1 138.1 -116.9 80.3 -113.9 25.8 -110.95 -9.85 -107 -105.85 -96.3 -278.55 -70.25
L -282 -70.05
Q -289.85 -69.45 -293.1 -74.45 -295.4 -78.2 -292.9 -82.3 -290.25 -87.25 -259.6 -105.85 -232.9 -122 -208.5 -134.75 -184.7 -147.2 -139.05 -166.3
L -127.55 -171.1
Q -126.3 -172.2 -109.35 -197.5 -92.2 -223.5 -86.8 -230.8 -82.4 -236.5 -79.9 -236.75 -76.6 -237 -0.45 -252.45 86.8 -270.5 92.35 -271
M 36.65 -42.7
L 36.85 -42.7 40.5 -42.3
Q 43.75 -41.55 46.8 -41.7 54.95 -42.6 92 -49
L 99.05 -49.95
Q 117.05 -51.3 122.6 -43.65 127.95 -36.85 121.45 -26.2 119.05 -22.1 109.4 -12.45 86.05 11.65 69.4 27.55
L 82.4 28.9
Q 102.25 31.4 110.95 30.65 119.25 30.05 125.85 26.8
L 126.8 26.2 125.85 24.5
Q 119.95 11.3 129.85 -5.75 140.2 -22.55 160.7 -35.4 181.2 -48 201.05 -49.75 209.3 -50.35 216.4 -49 221 -51.85 223.85 -51.5 227.3 -51.1 229.4 -48.05 232.45 -43.45 230.55 -36.15
L 226.15 -22.95
Q 223.25 -14.75 223.1 -11.85 222.5 -7.4 224.8 -4.8 227.1 -2.15 231.5 -1.7 247.4 -0.4 247.95 6.3 248.35 8.4 246.45 10.35 243.5 13.95 235.15 16.65 228.25 19 222.5 19.35
L 222.15 19.5
Q 213.2 20.3 206.25 18.2 199.55 15.9 196.85 11.7
L 192.1 15.1
Q 167.7 33.5 149.95 34.85 143.8 35.4 138.5 34.25 136.3 33.85 133.7 32.55 131.85 39.85 117.6 45.55 107.8 49.95 92.15 51.3 84.35 52.05 68.05 52.05 53.3 51.5 43.55 52.45 35.5 53.2 27.3 55.1 21 56.85 18.65 52.25 16.4 48.05 19.8 40.75 22.8 33.6 30.55 25.05 37.25 18 64.4 -4.6 77.6 -14.95 84.5 -21.25 71.2 -18.95 57.9 -17.8 52.75 -17.2 45.1 -17.2 39.65 -17.8 35.35 -19.7 30.2 -22.55 28.45 -27 26.1 -33.7 29.4 -38.3 31.65 -42.1 36.65 -42.7
M 21.35 -18.55
Q 24.8 -14.2 21.55 -4.6 17.55 5.85 -1.25 25.85
L -35.85 62 -25.15 60.3
Q -11.05 58.95 3.35 59.9 11.4 60.25 27.3 62.2 49 65.3 59.25 64.1 76.7 62.2 85.45 58.4 85.45 57.6 88.9 57.05 93.15 56.8 94.65 59.9 96.75 64.5 89.1 70.45
L 88.7 70.65
Q 74.55 81.6 48.15 84.2 37.95 85.4 26.35 85 -5.3 83.8 -29.15 86.5 -48.6 88.55 -69.35 94.35 -77.3 96.55 -79.15 96.85 -84.05 97.45 -87.95 94 -94.85 88.4 -88.7 76.2 -84.9 67.6 -67.25 51.1
L -15.8 2.3
Q -26.85 4.8 -34.7 5.55
L -45.25 6.15
Q -59.8 6.3 -66.1 2.7 -69.25 0.7 -70.7 -2.5 -72.05 -5.7 -71.45 -9 -69.55 -16.25 -59.2 -15.9
L -58.45 -15.7 -52.35 -15.7 9.85 -21.8
Q 18.1 -23 21.35 -18.55
M 163.55 69.1
Q 167.6 73.55 165.45 81.55 164.35 85.9 157.65 100.3
L 156.65 102 195.7 93.2
Q 211.4 89.8 215.6 89.4 220.9 88.6 222.9 90.35 223.85 91.1 223.85 92.65 223.85 94.15 222.5 95.5 220.15 97.35 211.6 101.25
L 210.65 101.65
Q 184.65 113.4 145.55 126.9 132.5 159.75 113.2 217.25 110.75 225.85 106.35 226.6 104.6 226.85 103.25 225.85 100.6 223.75 99.85 216.45 95.05 178.4 113.05 133.6 100.25 133.6 93.15 130.35 87.7 128 86.45 123.65 84.7 120.2 86.6 116.95 88.7 111.8 94.45 110.65
L 94.65 110.45
Q 97.5 110.05 101.15 110.45 106.55 111.2 124.7 109.1 137.5 84.95 149.4 71.2 152.9 67.55 156.3 66.8 160.45 66.2 163.55 69.1
M 75.5 121.15
Q 77.75 121.15 79.75 122.9 82.4 125.95 82.05 134
L 79.9 148.7
Q 74.2 191.85 76.85 197.5 79.55 201.9 77.8 205.2 76.4 207.5 73.6 208.25 69.05 209 63.85 205 57.65 199.8 54.85 195.8 49.1 187.55 48.55 176.85 28.05 204.6 9.5 211.3
L 3 212.85
Q -14.25 215.85 -19.2 202.5 -21.9 195.2 -20.2 185.25 -18.9 178.5 -14.8 167.3
L -11.55 157.9 -11.2 155.8
Q -10 152.6 -10.4 151.4 -10.6 149.3 -13.85 147.95 -17.9 146.6 -18.25 144.1 -18.65 142.55 -17.1 140.85 -13.5 137.05 -5.8 135.7 2.75 133.95 8.35 138.2 14.3 142.8 15.25 152.95 16.55 166.55 11.6 182.6 15.15 180.9 23.1 175.15 32.7 168.1 40.1 160.95 50.3 151 60.6 134.55 64.75 127.95 66.9 125.55 70.1 121.75 73.6 121.15
L 75.5 121.15
M -243.55 -12.25
Q -246.8 -15.35 -246.2 -21.45 -245.3 -30.05 -234.9 -36.75 -222.15 -44.95 -204.1 -48.25 -170.4 -54.3 -148.6 -36.55 -130.8 -22.2 -131.2 -0.2 -131.35 11.1 -135.4 19.35 -146.5 43.25 -172.7 56.85 -187.3 64.35 -202.75 67.55
L -203.7 67.55
Q -212.1 68.9 -217.9 67.75 -223.25 66.6 -224.2 64.1 -224.8 61.85 -222.3 60.1 -221.05 59.2 -213.5 56.45 -204.4 53.35 -199.3 50.9 -182.9 42.75 -173.1 31.95 -161.6 19.1 -163.7 6.7 -166.05 -7.5 -181.9 -13.4 -191.55 -16.65 -203.9 -16.65 -200.05 -5.3 -230.35 72.35
L -237.6 90.7
Q -252.55 129.65 -258.65 142.2 -268.75 162.85 -276.45 164.05
L -278.55 164.2
Q -282 164.05 -284.1 160.75 -292.35 148.15 -273 86.15 -261.15 49.25 -244.7 18.4 -234.55 -0.5 -224.4 -13.8 -231.1 -11.35 -234.55 -10.7 -241.1 -9.55 -243.55 -12.25
M -86 -26.2
Q -90.9 -25.65 -94.65 -28.15 -98.05 -30.4 -99.05 -35 -100.4 -44.95 -91.95 -56.85 -84 -67.85 -70.9 -75.8 -60.45 -82.65 -51.55 -84.4 -45.6 -85.9 -43.9 -83.45 -42.2 -81.55 -43.55 -78.3
L -46.8 -71.95
Q -58.25 -54.15 -67.05 -42.1 -77.25 -27.95 -85.65 -26.6
L -86 -26.2
M -101.7 -2.85
Q -99.45 -5.95 -99.05 -7.25 -96 -13.95 -92.35 -14.95
L -91.75 -14.95
Q -89.1 -15.3 -87.15 -13.95 -83.15 -11.7 -82.4 0.4 -81.6 12.25 -88.1 29.85 -91.85 40 -101.7 59.55 -112.15 79.55 -113.4 86.3 -112.2 89.7 -113.75 92.45 -115.85 95.5 -119.9 96.25 -125.4 97.45 -129.85 93.2 -134.45 89.35 -136.75 81.15 -139 73.3 -138.1 65.45 -136.5 53.25 -130.8 41.9 -122.6 24.95 -101.7 -2.85
M -103.8 104.1
Q -99 103.55 -98.1 110.8 -96.9 119.4 -107.85 151.2
L -108.05 151.4 -118.35 182.2
Q -98.8 178.45 -78.35 173.4
L -75.85 172.85
Q -66.4 144.3 -55.95 124.05 -44.1 101.3 -35.85 99.7
L -34.35 99.7
Q -31.3 100.3 -29.95 102 -28 104.9 -29 111.95 -29.8 116.95 -33.4 131.5
L -40.85 162.5 -28.8 158.1
Q -25.15 156.75 -23.05 157.5 -21.15 157.7 -20.35 159.25 -19.2 162.35 -23.45 166.15 -29.85 172.4 -44.5 180.7
L -48.9 207.1
Q -52.85 231.05 -57.9 240.4 -63.6 250.9 -71.85 252.25 -75.35 253 -79.15 251.9 -94.65 248.2 -83.55 200.2 -106.1 210.1 -128.7 216.3 -133.85 234.8 -139.05 255.9 -147.2 289.9 -162.2 292.85 -165.05 293.25 -168.3 292.85 -173.65 291.9 -176.15 287.5 -181.3 278.9 -177.7 257.45 -175.35 241.6 -169.25 222.6 -181.4 222.2 -188.6 218.95 -198.35 214.15 -198 207.65 -197.4 200.55 -185.35 195.4 -179.55 193.3 -162.95 190.45
L -157.2 189.5
Q -143.95 157.2 -129.25 132.65 -113.45 105.85 -104.6 104.1
L -103.8 104.1
M 198.95 -27.75
Q 188 -24.95 179.05 -19.7 163.9 -10.65 158.75 3.05
L 158.75 4.2 161.25 4.6
Q 166.1 4.2 177.55 -0.95 187.45 -5.45 192.1 -9 192.85 -13.7 198.95 -27.75 Z"/>
</g>

<g id="step_1_driver_call_you_0_Layer3_0_FILL">
<path fill="#FFFFFF" stroke="none" d="
M -180.6 -158.65
Q -180.65 -158.7 -180.75 -158.7 -180.9 -158.65 -180.95 -158.4 -181 -158.15 -180.9 -157.85 -180.75 -157.65 -180.55 -157.6 -180.35 -157.6 -180.3 -157.65 -180.3 -157.7 -180.3 -157.8 -180.35 -157.95 -180.35 -158.15 -180.35 -158.35 -180.5 -158.5 -180.5 -158.6 -180.6 -158.65
M -178.95 -162.3
Q -179.1 -162.1 -179.2 -162 -179.75 -161.5 -180 -160.7 -180.25 -160.05 -180.25 -159 -180.25 -157.9 -179.95 -157.5 -179.25 -156.2 -178.05 -155.65 -177.45 -155.4 -176.9 -155.4 -176.85 -155.35 -176.9 -155.3 -178 -155.25 -179.05 -156.1 -179.75 -156.65 -180.1 -157.25 -180.25 -157.35 -180.3 -157.25
L -180.35 -157.1
Q -180.3 -156.8 -180.1 -156.5 -179.9 -156.1 -179.55 -155.75 -178.6 -154.85 -177.15 -154.85 -175.65 -154.8 -174.45 -155.45 -173.7 -155.85 -173.2 -156.45 -172.9 -156.7 -172.7 -157.05 -172.1 -158 -172.05 -159.35 -171.95 -160.2 -172.2 -160.95 -172.35 -161.4 -172.6 -161.8 -172.8 -162.15 -173.1 -162.4 -173.55 -162.9 -174.3 -163.15 -174.6 -163.35 -174.95 -163.4
L -175.25 -163.4
Q -175.35 -163.45 -175.3 -163.55
L -175.25 -163.6 -175.1 -163.6
Q -174.95 -163.55 -174.75 -163.5 -173.8 -163.2 -173.2 -162.8 -173 -162.7 -172.9 -162.55 -172.3 -162 -171.95 -161.15 -171.85 -160.9 -171.8 -160.6 -171.75 -160 -171.75 -159.35 -171.8 -158.25 -172.1 -157.45 -172.35 -156.8 -172.9 -156.25 -172.95 -156.2 -173 -156.15 -173.5 -155.65 -173.9 -155.45 -174.15 -155.3 -174.25 -155.25 -174.3 -155.2 -174.3 -155.15 -174.25 -155.1 -174.05 -155.1 -173.85 -155.15 -173.6 -155.25 -173.1 -155.6 -172.65 -155.9 -172.2 -156.4 -171.8 -156.85 -171.2 -157.75 -171.1 -158.85 -171.05 -159.55 -171.1 -160.05 -171.1 -160.45 -171.15 -160.75 -171.3 -161.6 -171.9 -162.55 -172.4 -163.25 -173.3 -163.7 -173.7 -163.9 -174.2 -164 -175.9 -164.5 -177.8 -163.7 -178.8 -163.35 -179.45 -162.75 -180.7 -161.7 -180.8 -160 -180.85 -159.6 -180.8 -159.3 -180.7 -158.95 -180.6 -158.95 -180.5 -158.95 -180.45 -159.05
L -180.45 -159.15
Q -180.5 -159.35 -180.45 -159.65 -180.35 -160.3 -180.1 -160.9 -179.75 -161.8 -179.05 -162.4 -178.8 -162.6 -178.5 -162.8 -177.95 -163.1 -177.4 -163.2 -177.35 -163.2 -177.35 -163.15
L -177.4 -163.15
Q -178.35 -162.85 -178.95 -162.3
M -173.15 -159.25
Q -173.35 -159.25 -173.85 -159.2 -174.9 -159.05 -175.65 -158.95 -175.95 -158.9 -176.25 -158.85 -176.9 -158.75 -179.1 -158.3
L -179.15 -158.3
Q -179.25 -158.3 -179.25 -158.4 -179.25 -158.45 -179.2 -158.5
L -179.15 -158.55 -179.05 -158.6
Q -178.5 -159 -178 -159.3 -177.9 -159.4 -177.6 -159.5 -177.55 -159.55 -177.55 -159.6 -177.45 -159.7 -177.35 -159.9 -177.3 -160 -177.15 -160.25
L -177.05 -160.35 -177 -160.35
Q -176.7 -160.4 -176.15 -160.55 -175.25 -160.8 -175.2 -160.8 -175.05 -160.8 -175.05 -160.75
L -175 -160.6
Q -174.85 -160.3 -174.85 -160.25
L -174.8 -160.1 -174.7 -160.1
Q -174.55 -160.05 -174.25 -160 -173.95 -159.9 -173.8 -159.85 -173.55 -159.8 -173.35 -159.7 -173.25 -159.7 -173.1 -159.6 -172.95 -159.6 -172.95 -159.55 -172.9 -159.5 -172.85 -159.45 -172.9 -159.3 -173 -159.25 -173.1 -159.25 -173.15 -159.25 Z"/>
</g>

<g id="step_1_driver_call_you_0_Layer2_0_FILL">
<path fill="#FFFFFF" stroke="none" d="
M -225.75 -19.7
Q -225.75 -20.2 -226.1 -20.65 -226.35 -20.95 -227 -21
L -227.05 -21
Q -228 -20.95 -228.75 -19.5 -229.55 -17.6 -229.1 -15.9 -228.6 -14.1 -227.45 -13.85 -226.6 -13.55 -226.3 -14 -226.05 -14.25 -226.15 -15.05 -226.15 -16.1 -225.95 -17.1 -225.55 -18.4 -225.75 -19.7
M -211.3 -42.05
Q -208.4 -43.45 -205.65 -43.8 -205.2 -43.8 -205.3 -43.75 -205.3 -43.65 -205.5 -43.5 -210.45 -42.1 -213.75 -39.5 -214.35 -38.8 -215.1 -38.25 -217.4 -35.7 -219.65 -31.95 -220.95 -28.95 -223.65 -22.9 -225.85 -15.85 -224.45 -12.4 -221.35 -3.2 -216 0.95 -213.1 3 -210.55 3.45 -210.25 3.65 -210.55 3.85 -215.85 3.6 -220.7 -2.5 -223.65 -6.5 -225.4 -10.9 -226.15 -11.75 -226.65 -10.95 -226.75 -10.5 -226.85 -10.1 -226.8 -8.3 -225.7 -5.9 -224.65 -3.05 -222.8 -0.6 -218.25 5.5 -212.1 6.55 -205.05 7.65 -194.4 4.35 -188.2 2.3 -183.8 -1 -181.9 -2.5 -180.4 -4.05 -176.2 -9.55 -174.75 -17.45 -172.55 -23 -173.9 -27.15 -174.55 -29.8 -176.35 -32.6 -177.6 -34.65 -179.45 -36.45 -182.6 -39.8 -187.3 -41.9 -189.35 -42.85 -191.55 -43.35 -192.4 -43.55 -193.2 -43.7 -193.65 -44.1 -193.45 -44.45 -193.35 -44.75 -193.2 -44.85 -192.85 -44.65 -192.5 -44.8 -191.5 -44.45 -190.3 -44.1 -184.45 -42.05 -180.2 -38.75 -179.3 -38.1 -178.35 -37.25 -174 -33.35 -172.4 -28.25 -171.75 -26.6 -171.7 -24.75 -171.5 -22.15 -173.1 -17.3 -174.3 -10.45 -175.85 -6.25 -177.2 -2.85 -181.7 0.5 -182.2 0.8 -182.65 1.1 -186.45 3.6 -190 4.65 -191.75 5.3 -192.45 5.75 -192.9 6.05 -192.9 6.35 -192.7 6.8 -191.3 6.85 -189.25 6.5 -187.15 5.95 -182.4 4.15 -179.4 2.35 -175.4 0.05 -173.55 -2.5 -170 -7.3 -169.4 -13.7 -168.75 -17.95 -167.65 -21.35 -167.1 -23.35 -167.3 -25.15 -167.85 -30.05 -172.15 -36.35 -175.65 -41.4 -181.15 -44.45 -183.6 -45.8 -186.45 -46.9 -196.95 -50.55 -207.6 -47 -212.85 -45.1 -216.25 -42.35 -222.1 -37.3 -224.7 -28.85 -225.45 -26.65 -225.8 -24.8 -226.2 -22.7 -225.4 -22.6 -224.65 -22.6 -224.5 -23 -224.35 -23.2 -224.35 -23.4 -223.75 -24.65 -223.1 -26.5 -221.5 -29.95 -219.9 -33 -217.5 -37.35 -214.3 -40.1 -212.8 -41.2 -211.3 -42.05
M -205.35 -27.5
Q -205.2 -27.45 -205.2 -27.55 -203.5 -27.65 -200.15 -28.15 -194.1 -28.85 -194 -28.75 -193.9 -28.8 -193.8 -28.8 -193.3 -28.75 -193.2 -28.25 -193.1 -28.15 -193 -27.45 -192.55 -25.5 -192.65 -25.15 -192.5 -24.9 -192.55 -24.65 -192.5 -24.55 -191.8 -24.45 -190.75 -24.05 -188.9 -23.45 -187.2 -23 -186.05 -22.5 -184.3 -21.9 -183.1 -21.25 -182.25 -20.9 -181.75 -20.35 -181.2 -19.9 -181 -19.85 -180.55 -19.45 -180.7 -19.05 -180.75 -18.95 -180.75 -18.85 -181.1 -17.95 -182.2 -17.85 -182.15 -17.9 -182.9 -17.95 -184.15 -18 -188.2 -18.2 -196.05 -18.5 -200.85 -18.4 -202.65 -18.3 -204.25 -18.35 -208.7 -18.1 -219.5 -17
L -219.65 -17
Q -220.1 -17.1 -220.15 -17.8
L -220.1 -17.95
Q -220 -18.1 -219.7 -18.45 -219.6 -18.4 -219.3 -18.7 -219 -18.95 -218.65 -19.2 -215.25 -21.2 -212.25 -22.6 -211.3 -22.85 -209.75 -23.45 -209.35 -23.55 -209.15 -23.85 -208.45 -24.4 -207.5 -25.55 -207.05 -26.1 -206.2 -27.05 -205.75 -27.35 -205.65 -27.45 -205.4 -27.4 -205.35 -27.5 Z"/>
</g>

<g id="step_1_driver_call_you_0_Layer1_0_FILL">
<path fill="#B82E37" stroke="none" d="
M 180.7 136.05
L 214.3 173.45 214.3 136.05 245.45 136.05 245.45 0 0 0 0 136.05 180.7 136.05 Z"/>
</g>

<g id="step_1_driver_call_you_0_Layer1_1_FILL">
<path fill="#FFFFFF" stroke="none" d="
M 205.2 47.3
L 205.2 39.95 40.25 39.95 40.25 47.3 205.2 47.3 Z"/>
</g>

<g id="step_1_driver_call_you_0_Layer1_2_FILL">
<path fill="#FFFFFF" stroke="none" d="
M 205.2 71.7
L 205.2 64.35 40.25 64.35 40.25 71.7 205.2 71.7 Z"/>
</g>

<g id="step_1_driver_call_you_0_Layer1_3_FILL">
<path fill="#FFFFFF" stroke="none" d="
M 205.2 96.05
L 205.2 88.7 40.25 88.7 40.25 96.05 205.2 96.05 Z"/>
</g>
</defs>

<g transform="matrix( 0.6999969482421875, 0, 0, 0.6999969482421875, 379.85,320.05) ">
<g transform="matrix( 1, 0, 0, 1, 264,2.1) ">
<g transform="matrix( 1, 0, 0, 1, 0,0) ">
<use xlink:href="#tree_0_Layer0_0_FILL"/>
</g>
</g>

<g transform="matrix( 1, 0, 0, 1, 0,0) ">
<use xlink:href="#step_1_driver_call_you_0_Layer8_0_FILL"/>
</g>

<g transform="matrix( 1, 0, 0, 1, 500.35,167.35) ">
<use xlink:href="#step_1_driver_call_you_0_Layer8_1_FILL"/>
</g>

<g transform="matrix( 1, 0, 0, 1, -459.6,-414.6) ">
<use xlink:href="#step_1_driver_call_you_0_Layer7_0_FILL"/>
</g>

<g transform="matrix( 1, 0, 0, 1, 42.3,-53.1) ">
<g transform="matrix( 1, 0, 0, 1, -246.55,-363.9) ">
<use xlink:href="#mobile_phone_calling_screen_0_Layer5_0_FILL"/>
</g>

<g transform="matrix( 1, 0, 0, 1, -246.55,-363.9) ">
<use xlink:href="#mobile_phone_calling_screen_0_Layer5_1_FILL"/>
</g>

<g transform="matrix( 0.79998779296875, 0, 0, 0.79998779296875, -79.95,236) ">
<g transform="matrix( 1, 0, 0, 1, 0,0) ">
<use xlink:href="#phone_icon_decline_0_Layer1_0_FILL"/>
</g>

<g transform="matrix( -0.70709228515625, 0.70709228515625, -0.70709228515625, -0.70709228515625, 0,0) ">
<g transform="matrix( 1, 0, 0, 1, 0,0) ">
<use xlink:href="#phone_ico_0_Layer0_0_FILL"/>
</g>
</g>
</g>

<g transform="matrix( 0.79998779296875, 0, 0, 0.79998779296875, 79.95,236) ">
<g transform="matrix( 1, 0, 0, 1, 0,0) ">
<use xlink:href="#phone_icon_accept_0_Layer1_0_FILL"/>
</g>

<g transform="matrix( 1, 0, 0, 1, 0,0) ">
<g transform="matrix( 1, 0, 0, 1, 0,0) ">
<use xlink:href="#phone_ico_0_Layer0_0_FILL"/>
</g>
</g>
</g>

<g transform="matrix( 1, 0, 0, 1, 0,0) ">
<use xlink:href="#mobile_phone_calling_screen_0_Layer3_2_FILL"/>
</g>

<g transform="matrix( 1, 0, 0, 1, 0,0) ">
<use xlink:href="#mobile_phone_calling_screen_0_Layer3_3_FILL"/>
</g>

<g transform="matrix( 1, 0, 0, 1, 0,0) ">
<use xlink:href="#mobile_phone_calling_screen_0_Layer2_0_FILL"/>
</g>
</g>

<g transform="matrix( 1, 0, 0, 1, 0,0) ">
<use xlink:href="#step_1_driver_call_you_0_Layer5_0_FILL"/>
</g>

<g transform="matrix( 0.719970703125, 0, 0, 0.719970703125, 462.2,134.35) ">
<g transform="matrix( 1, 0, 0, 1, 0,0) ">
<use xlink:href="#ph_bike_0_Layer2_0_FILL"/>
</g>

<g transform="matrix( 1, 0, 0, 1, 0,0) ">
<use xlink:href="#ph_bike_0_Layer1_0_FILL"/>
</g>

<g transform="matrix( 0.1720428466796875, 0.0156707763671875, -0.0156707763671875, 0.1720428466796875, -324.25,-171.9) ">
<g transform="matrix( 1, 0, 0, 1, 0,0) ">
<use xlink:href="#PH_logo_round_0_Layer0_0_FILL"/>
</g>
</g>
</g>

<g transform="matrix( 1, 0, 0, 1, 0,0) ">
<use xlink:href="#step_1_driver_call_you_0_Layer3_0_FILL"/>
</g>

<g transform="matrix( 1, 0, 0, 1, 0,0) ">
<use xlink:href="#step_1_driver_call_you_0_Layer2_0_FILL"/>
</g>

<g transform="matrix( 1, 0, 0, 1, -442.1,-324.95) ">
<use xlink:href="#step_1_driver_call_you_0_Layer1_0_FILL"/>
</g>

<g transform="matrix( 1, 0, 0, 1, -442.1,-324.95) ">
<use xlink:href="#step_1_driver_call_you_0_Layer1_1_FILL"/>
</g>

<g transform="matrix( 1, 0, 0, 1, -442.1,-324.95) ">
<use xlink:href="#step_1_driver_call_you_0_Layer1_2_FILL"/>
</g>

<g transform="matrix( 1, 0, 0, 1, -442.1,-324.95) ">
<use xlink:href="#step_1_driver_call_you_0_Layer1_3_FILL"/>
</g>
</g>
</svg>
